<svg width="24" height="24" viewBox="0 0 24 24" fill="none" xmlns="http://www.w3.org/2000/svg">
<path d="M12.5924 0.232394C12.7975 0.350499 12.947 0.50938 13.1055 0.683443C13.2267 0.808864 13.3478 0.918859 13.4803 1.03151C13.928 1.4189 14.3358 1.84941 14.7517 2.27022C15.3159 2.84076 15.3159 2.84076 15.9117 3.37793C16.0777 3.52138 16.2303 3.67532 16.3844 3.83152C16.4408 3.88852 16.4972 3.94553 16.5553 4.00426C16.5968 4.04649 16.6382 4.08871 16.681 4.13222C16.6906 4.09246 16.7003 4.0527 16.7103 4.01173C16.7251 3.95906 16.7399 3.90638 16.7551 3.85211C16.7758 3.77412 16.7758 3.77412 16.7968 3.69455C16.9163 3.46759 17.0482 3.39661 17.2741 3.27543C17.4845 3.23746 17.691 3.23688 17.9044 3.2381C17.9943 3.23749 17.9943 3.23749 18.086 3.23686C18.2123 3.23639 18.3386 3.2366 18.4649 3.23744C18.6576 3.23835 18.8501 3.23611 19.0428 3.23359C19.1659 3.23353 19.2889 3.23365 19.412 3.23398C19.4693 3.23311 19.5265 3.23223 19.5855 3.23133C19.8586 3.2355 20.0507 3.25219 20.2711 3.42219C20.4746 3.64547 20.5646 3.81163 20.5767 4.11566C20.5706 4.21424 20.5706 4.21424 20.5644 4.31481C20.5604 4.39001 20.5565 4.4652 20.5524 4.54268C20.5479 4.6237 20.5435 4.70472 20.5388 4.78819C20.3587 6.86306 20.3587 6.86306 21.0935 8.69206C21.3924 8.99553 21.7308 9.24645 22.088 9.47653C22.3533 9.64783 22.5809 9.848 22.8103 10.0638C22.8511 10.102 22.8918 10.1403 22.9338 10.1797C23.0547 10.2949 23.1737 10.4117 23.2923 10.5293C23.3522 10.5872 23.3522 10.5872 23.4134 10.6463C23.7431 10.9731 23.9589 11.2898 24 11.7681C23.9919 12.1077 23.9037 12.3858 23.6751 12.6401C23.2904 12.9865 23.02 13.0393 22.5068 13.0361C22.4515 13.036 22.3962 13.0359 22.3392 13.0358C22.1626 13.0354 21.986 13.0346 21.8094 13.0337C21.6896 13.0334 21.5698 13.0331 21.4501 13.0328C21.1566 13.0321 20.863 13.031 20.5695 13.0296C20.5697 13.0776 20.5698 13.1255 20.57 13.175C20.5744 14.344 20.5777 15.5129 20.5797 16.6819C20.5807 17.2473 20.5821 17.8126 20.5844 18.3779C20.5864 18.8708 20.5876 19.3638 20.5881 19.8567C20.5883 20.1175 20.5889 20.3784 20.5904 20.6392C20.5917 20.8851 20.5921 21.131 20.5918 21.3769C20.5919 21.5093 20.593 21.6418 20.5941 21.7742C20.5921 22.3733 20.5564 22.9728 20.1328 23.4346C20.0926 23.4807 20.0523 23.5267 20.0108 23.5742C19.4897 23.9888 18.9758 24.0064 18.3284 23.9959C18.2415 23.9955 18.1545 23.9951 18.0649 23.9947C17.8358 23.9937 17.6066 23.9912 17.3775 23.9882C17.1429 23.9855 16.9083 23.9843 16.6736 23.983C16.2147 23.9802 15.7558 23.9757 15.2969 23.9701C15.2966 23.8504 15.2966 23.8504 15.2962 23.7282C15.2937 22.9729 15.2899 22.2176 15.2848 21.4623C15.2822 21.0741 15.2801 20.6859 15.2791 20.2977C15.278 19.9225 15.2758 19.5473 15.2726 19.1721C15.2717 19.0295 15.2711 18.8869 15.2711 18.7443C15.283 17.3582 15.283 17.3582 14.6492 16.1594C14.5719 16.0613 14.5719 16.0613 14.5719 15.9295C14.5335 15.9111 14.4951 15.8926 14.4556 15.8736C14.317 15.8022 14.1909 15.7231 14.0612 15.6371C13.1168 15.0442 11.7245 15.0667 10.6582 15.2815C10.2958 15.3967 9.92048 15.5713 9.64975 15.8433C9.56299 15.9295 9.56299 15.9295 9.43118 15.9295C9.41274 15.9682 9.39431 16.0068 9.37531 16.0467C9.30474 16.1828 9.22593 16.3021 9.13872 16.4279C8.6686 17.1976 8.74089 18.0732 8.73838 18.9435C8.73727 19.0887 8.73607 19.234 8.7348 19.3792C8.73168 19.7594 8.72971 20.1396 8.72798 20.5198C8.72601 20.9086 8.72294 21.2974 8.71997 21.6862C8.71432 22.4475 8.70987 23.2088 8.7062 23.9701C8.19113 23.9763 7.67606 23.9809 7.16096 23.9838C6.92173 23.9852 6.68253 23.987 6.44332 23.99C6.21212 23.9929 5.98096 23.9945 5.74975 23.9951C5.61935 23.9959 5.48895 23.9979 5.35857 24C4.77584 24.0001 4.34249 23.9252 3.91146 23.5005C3.4176 22.952 3.39597 22.3435 3.4037 21.634C3.40378 21.5398 3.40374 21.4455 3.40359 21.3513C3.40351 21.0973 3.40505 20.8435 3.4069 20.5895C3.40856 20.3235 3.40871 20.0574 3.40902 19.7913C3.40983 19.2883 3.41199 18.7853 3.41465 18.2823C3.4176 17.7093 3.41904 17.1363 3.42037 16.5633C3.42312 15.3854 3.42775 14.2075 3.43363 13.0296C3.36053 13.031 3.28742 13.0324 3.2121 13.0338C2.93893 13.0386 2.66577 13.0416 2.39257 13.0441C2.27469 13.0454 2.15682 13.0472 2.03896 13.0495C1.8688 13.0527 1.69869 13.0542 1.5285 13.0554C1.45041 13.0574 1.45041 13.0574 1.37074 13.0595C0.995911 13.0596 0.71627 12.973 0.401904 12.766C0.280646 12.6319 0.280646 12.6319 0.208302 12.4982C0.170708 12.4319 0.170708 12.4319 0.132355 12.3641C-0.0385582 12.0069 -0.0305403 11.7057 0.0801727 11.3287C0.200557 11.0219 0.388273 10.8249 0.623054 10.5991C0.663947 10.5585 0.70484 10.5179 0.746972 10.4761C0.876972 10.3475 1.00809 10.2201 1.13924 10.0927C1.22603 10.007 1.31275 9.92118 1.39939 9.83533C2.06253 9.1808 2.06253 9.1808 2.38658 8.90453C2.7803 8.5688 3.13611 8.19073 3.49954 7.82299C4.33216 6.98049 4.33216 6.98049 4.74276 6.63101C5.09034 6.31965 5.41248 5.97986 5.74038 5.64807C6.57301 4.80557 6.57301 4.80557 6.98361 4.45609C7.33118 4.14473 7.65333 3.80494 7.98122 3.47315C8.81399 2.6305 8.81399 2.6305 9.10216 2.3862C9.338 2.1857 9.55273 1.96832 9.76844 1.7467C9.80451 1.70981 9.84057 1.67291 9.87773 1.63489C10.0276 1.48142 10.1775 1.3279 10.326 1.17308C11.6142 -0.167172 11.6142 -0.167172 12.5924 0.232394Z" fill="#3D95C5"/>
</svg>
