<svg width="1214" height="1192" viewBox="0 0 1214 1192" fill="none" xmlns="http://www.w3.org/2000/svg">
<path d="M1203 596C1203 925.162 936.162 1192 607 1192C277.838 1192 11 925.162 11 596C11 266.838 277.838 0 607 0C936.162 0 1203 266.838 1203 596Z" fill="#EAF4FD"/>
<path d="M874 300C989.98 300 1084 394.02 1084 510V649H1050V509C1050 409.589 969.411 329 870 329H357C257.589 329 177 409.589 177 509V649H144V510C144 394.02 238.02 300 354 300H874Z" fill="white"/>
<path d="M1050 509C1050 409.589 969.411 329 870 329V325C971.62 325 1054 407.38 1054 509V645H1080V510C1080 396.229 987.771 304 874 304H354C240.229 304 148 396.229 148 510V645H173V509C173 407.38 255.38 325 357 325V329C257.589 329 177 409.589 177 509V649H144V510C144 394.02 238.02 300 354 300H874C989.98 300 1084 394.02 1084 510V649H1050V509ZM870 325V329H357V325H870Z" fill="#5A9AD9"/>
<path d="M163 116C196.017 116 223.914 137.919 232.934 168H244C270.51 168 292 189.49 292 216V222C292 248.51 270.51 270 244 270H80C53.4903 270 32 248.51 32 222V216C32 189.49 53.4903 168 80 168H93.0664C102.086 137.919 129.983 116 163 116Z" fill="white"/>
<path d="M244 266V270H80V266H244ZM288 222V216C288 191.699 268.301 172 244 172H229.957L229.103 169.148C220.576 140.713 194.202 120 163 120C131.798 120 105.424 140.713 96.8975 169.148L96.043 172H80C55.6995 172 36 191.699 36 216V222C36 246.301 55.6995 266 80 266V270C53.4903 270 32 248.51 32 222V216C32 189.49 53.4903 168 80 168H93.0664C102.086 137.919 129.983 116 163 116C196.017 116 223.914 137.919 232.934 168H244C270.51 168 292 189.49 292 216V222C292 248.51 270.51 270 244 270V266C268.301 266 288 246.301 288 222Z" fill="#5A9AD9"/>
<path d="M132 640C132 635.582 135.582 632 140 632H184C188.418 632 192 635.582 192 640V1085H132V640Z" fill="white"/>
<path d="M188 640C188 637.791 186.209 636 184 636H140C137.791 636 136 637.791 136 640V1081H188V640ZM192 1085H132V640C132 635.582 135.582 632 140 632H184C188.418 632 192 635.582 192 640V1085Z" fill="#5A9AD9"/>
<path d="M1038 640C1038 635.582 1041.58 632 1046 632H1090C1094.42 632 1098 635.582 1098 640V1085H1038V640Z" fill="white"/>
<path d="M1094 640C1094 637.791 1092.21 636 1090 636H1046C1043.79 636 1042 637.791 1042 640V1081H1094V640ZM1098 1085H1038V640C1038 635.582 1041.58 632 1046 632H1090C1094.42 632 1098 635.582 1098 640V1085Z" fill="#5A9AD9"/>
<path d="M1214 1080V1084H0V1080H1214Z" fill="#5A9AD9"/>
<path d="M478 325H512V400H478V325Z" fill="white"/>
<path d="M512 325V400H478V325H512ZM482 396H508V329H482V396Z" fill="#5A9AD9"/>
<path d="M708 325H742V400H708V325Z" fill="white"/>
<path d="M742 325V400H708V325H742ZM712 396H738V329H712V396Z" fill="#5A9AD9"/>
<path d="M538 420C538 414.353 536.888 408.762 534.727 403.545C532.566 398.328 529.399 393.587 525.406 389.594C521.413 385.601 516.672 382.434 511.455 380.273C506.238 378.112 500.647 377 495 377C489.353 377 483.762 378.112 478.545 380.273C473.328 382.434 468.587 385.601 464.594 389.594C460.601 393.587 457.434 398.328 455.273 403.545C453.112 408.762 452 414.353 452 420L495 420H538Z" fill="white"/>
<path d="M496.058 377.013C501.344 377.143 506.564 378.248 511.455 380.273C516.672 382.434 521.412 385.602 525.405 389.595C529.398 393.588 532.566 398.328 534.727 403.545C536.887 408.762 538 414.353 538 420H495V416H533.792C533.405 412.251 532.479 408.57 531.031 405.075C529.071 400.344 526.199 396.044 522.577 392.423C518.956 388.801 514.656 385.929 509.925 383.969C505.193 382.009 500.122 381 495 381C489.878 381 484.807 382.009 480.075 383.969C475.344 385.929 471.044 388.801 467.423 392.423C463.801 396.044 460.929 400.344 458.969 405.075C457.521 408.57 456.595 412.251 456.208 416H495V420H452C452 414.706 452.977 409.461 454.88 404.527L455.273 403.545C457.299 398.654 460.209 394.182 463.855 390.352L464.595 389.595C468.338 385.851 472.738 382.834 477.572 380.69L478.545 380.273C483.762 378.113 489.353 377 495 377L496.058 377.013Z" fill="#5A9AD9"/>
<path d="M768 420C768 414.353 766.888 408.762 764.727 403.545C762.566 398.328 759.399 393.587 755.406 389.594C751.413 385.601 746.672 382.434 741.455 380.273C736.238 378.112 730.647 377 725 377C719.353 377 713.762 378.112 708.545 380.273C703.328 382.434 698.587 385.601 694.594 389.594C690.601 393.587 687.434 398.328 685.273 403.545C683.112 408.762 682 414.353 682 420L725 420H768Z" fill="white"/>
<path d="M726.058 377.013C731.344 377.143 736.564 378.248 741.455 380.273C746.672 382.434 751.412 385.602 755.405 389.595C759.398 393.588 762.566 398.328 764.727 403.545C766.887 408.762 768 414.353 768 420H725V416H763.792C763.405 412.251 762.479 408.57 761.031 405.075C759.071 400.344 756.199 396.044 752.577 392.423C748.956 388.801 744.656 385.929 739.925 383.969C735.193 382.009 730.122 381 725 381C719.878 381 714.807 382.009 710.075 383.969C705.344 385.929 701.044 388.801 697.423 392.423C693.801 396.044 690.929 400.344 688.969 405.075C687.521 408.57 686.595 412.251 686.208 416H725V420H682C682 414.706 682.977 409.461 684.88 404.527L685.273 403.545C687.299 398.654 690.209 394.182 693.855 390.352L694.595 389.595C698.338 385.851 702.738 382.834 707.572 380.69L708.545 380.273C713.762 378.113 719.353 377 725 377L726.058 377.013Z" fill="#5A9AD9"/>
<path d="M243.314 747.599C246.588 723.52 268.761 706.654 292.84 709.927L298.335 710.674C322.414 713.948 339.28 736.121 336.007 760.2L320.193 876.524L227.5 863.923L243.314 747.599Z" fill="white"/>
<path d="M332.043 759.661C335.019 737.771 319.686 717.614 297.796 714.638L292.301 713.891C270.411 710.915 250.253 726.248 247.278 748.138L232.003 860.498L316.768 872.021L332.043 759.661ZM320.192 876.524L227.5 863.923L243.314 747.599C246.536 723.896 268.073 707.183 291.713 709.789L292.84 709.927L298.335 710.674C322.414 713.948 339.28 736.121 336.006 760.2L320.192 876.524Z" fill="#5A9AD9"/>
<path d="M353.5 654.5C353.5 680.181 335.591 701 313.5 701C291.409 701 273.5 680.181 273.5 654.5C273.5 628.819 291.409 608 313.5 608C335.591 608 353.5 628.819 353.5 654.5Z" fill="white"/>
<path d="M349.5 654.5C349.5 630.442 332.838 612 313.5 612C294.162 612 277.5 630.442 277.5 654.5C277.5 678.558 294.162 697 313.5 697V701C291.409 701 273.5 680.181 273.5 654.5C273.5 628.819 291.409 608 313.5 608C335.591 608 353.5 628.819 353.5 654.5C353.5 680.181 335.591 701 313.5 701V697C332.838 697 349.5 678.558 349.5 654.5Z" fill="#5A9AD9"/>
<path d="M353.5 649C353.5 643.616 352.465 638.284 350.455 633.31C348.445 628.336 345.499 623.816 341.784 620.009C338.07 616.201 333.66 613.181 328.807 611.121C323.954 609.06 318.753 608 313.5 608C308.247 608 303.046 609.06 298.193 611.121C293.34 613.181 288.93 616.201 285.216 620.009C281.501 623.816 278.555 628.336 276.545 633.31C274.535 638.284 273.5 643.616 273.5 649L313.5 649H353.5Z" fill="white"/>
<path d="M313.5 608C318.753 608 323.955 609.061 328.808 611.121C333.661 613.182 338.07 616.202 341.784 620.009C345.498 623.816 348.445 628.335 350.455 633.31C352.465 638.284 353.5 643.616 353.5 649H313.5V645H349.286C348.916 641.502 348.064 638.069 346.746 634.809C344.929 630.312 342.269 626.233 338.921 622.802C335.573 619.371 331.605 616.654 327.244 614.803C322.884 612.951 318.214 612 313.5 612C308.786 612 304.116 612.951 299.756 614.803C295.395 616.654 291.427 619.371 288.079 622.802C284.731 626.233 282.071 630.312 280.254 634.809C278.936 638.069 278.084 641.502 277.714 645H313.5V649H273.5C273.5 643.952 274.41 638.951 276.18 634.247L276.545 633.31C278.429 628.646 281.137 624.382 284.528 620.73L285.216 620.009C288.698 616.44 292.791 613.562 297.288 611.519L298.192 611.121C303.045 609.061 308.247 608 313.5 608Z" fill="#5A9AD9"/>
<path d="M376.5 645C377.605 645 378.5 645.895 378.5 647C378.5 648.105 377.605 649 376.5 649H306.5C305.395 649 304.5 648.105 304.5 647C304.5 645.895 305.395 645 306.5 645H376.5Z" fill="#5A9AD9"/>
<path d="M876 765H896C909.807 765 921 776.193 921 790V799H876V765Z" fill="white"/>
<path d="M917 790C917 778.402 907.598 769 896 769H880V795H917V790ZM921 799H876V765H896C909.807 765 921 776.193 921 790V799Z" fill="#5A9AD9"/>
<path d="M234.553 962.766L200 1044.58V1081.5H245.547L289 962.766V935.827L230.5 860L234.553 962.766Z" fill="white"/>
<path d="M291 935.145V963.121L290.878 963.453L246.945 1083.5H198V1044.18L232.537 962.399L228.255 853.815L291 935.145ZM236.569 963.133L202 1044.99V1079.5H244.149L287 962.412V936.508L232.745 866.185L236.569 963.133Z" fill="#5A9AD9"/>
<path d="M304 956.5L232 862L317.656 870.995L361.5 961.997V1082H312.414L304 956.5Z" fill="white"/>
<path d="M318.974 869.122L363.5 961.54V1084H310.544L302.045 957.233L227.602 859.527L318.974 869.122ZM305.955 955.767L314.284 1080H359.5V962.453L316.338 872.866L236.397 864.473L305.955 955.767Z" fill="#5A9AD9"/>
<path d="M425 927.973C425 925.764 426.791 923.973 429 923.973H507C509.209 923.973 511 925.764 511 927.973V1068.97C511 1077.81 503.837 1084.97 495 1084.97H441C432.163 1084.97 425 1077.81 425 1068.97V927.973Z" fill="white"/>
<path d="M495 1080.97V1084.97H441V1080.97H495ZM507 1068.97V927.973H429V1068.97C429 1075.6 434.373 1080.97 441 1080.97V1084.97C432.302 1084.97 425.224 1078.03 425.005 1069.39L425 1068.97V927.973C425 925.833 426.681 924.086 428.794 923.978L429 923.973H507L507.206 923.978C509.319 924.086 511 925.833 511 927.973V1068.97L510.995 1069.39C510.776 1078.03 503.698 1084.97 495 1084.97V1080.97C501.627 1080.97 507 1075.6 507 1068.97Z" fill="#5A9AD9"/>
<path d="M440.826 1016C440.826 1016 416.934 923.988 427.861 863.329C436.157 817.278 525.398 683.87 539.538 682.124C634.459 670.404 789.892 675.137 808.454 682.124C827.015 689.111 891.884 809.268 913.165 863.329C925.007 893.41 919.908 1016 919.908 1016H440.826Z" fill="white"/>
<path d="M539.293 680.139C586.882 674.263 649.572 672.517 702.654 673.109C729.202 673.405 753.376 674.286 772.086 675.532C781.44 676.155 789.447 676.871 795.711 677.652C801.903 678.425 806.587 679.284 809.159 680.252C810.631 680.806 812.177 681.853 813.751 683.193C815.347 684.552 817.074 686.302 818.908 688.374C822.575 692.519 826.766 698.07 831.3 704.648C840.373 717.81 850.919 735.232 861.533 754.093C882.754 791.805 904.339 835.448 915.027 862.596C918.112 870.433 920.024 884.021 921.209 899.724C922.401 915.512 922.875 933.708 922.978 950.933C923.081 968.163 922.813 984.448 922.52 996.424C922.373 1002.41 922.22 1007.33 922.104 1010.74C922.046 1012.45 921.996 1013.78 921.961 1014.69C921.944 1015.15 921.931 1015.49 921.921 1015.73C921.917 1015.84 921.913 1015.93 921.91 1015.99C921.909 1016.02 921.908 1016.04 921.908 1016.06C921.907 1016.07 921.908 1016.07 921.908 1016.08C921.907 1016.08 921.907 1016.08 921.907 1016.08C921.9 1016.08 921.792 1016.08 919.909 1016L921.907 1016.08L921.827 1018H439.28L438.891 1016.5L440.827 1016L438.89 1016.5C438.89 1016.5 438.889 1016.5 438.889 1016.5C438.888 1016.49 438.888 1016.49 438.886 1016.48C438.883 1016.47 438.878 1016.45 438.872 1016.43C438.861 1016.39 438.842 1016.32 438.82 1016.23C438.774 1016.05 438.707 1015.78 438.62 1015.44C438.447 1014.74 438.194 1013.72 437.876 1012.39C437.241 1009.75 436.347 1005.9 435.309 1001.1C433.233 991.493 430.58 978.053 428.269 962.71C423.655 932.081 420.369 893.641 425.894 862.974C428.025 851.142 435.285 833.938 445.043 814.92C454.833 795.84 467.241 774.736 479.823 755.035C492.403 735.336 505.18 717.004 515.712 703.47C520.975 696.708 525.705 691.108 529.589 687.126C531.528 685.138 533.294 683.515 534.838 682.346C536.302 681.238 537.844 680.318 539.293 680.139ZM702.609 677.109C649.603 676.517 587.116 678.264 539.784 684.109C539.465 684.148 538.653 684.475 537.252 685.535C535.932 686.535 534.323 688.002 532.452 689.919C528.718 693.747 524.091 699.216 518.869 705.926C508.432 719.336 495.729 737.562 483.195 757.189C470.661 776.814 458.32 797.806 448.602 816.746C438.852 835.748 431.847 852.49 429.83 863.684C424.428 893.675 427.624 931.572 432.224 962.113C434.52 977.355 437.157 990.71 439.219 1000.25C440.25 1005.02 441.137 1008.84 441.766 1011.46C442.015 1012.5 442.226 1013.35 442.387 1014H917.984C918.016 1013.14 918.058 1012 918.106 1010.61C918.222 1007.2 918.375 1002.3 918.521 996.326C918.814 984.377 919.08 968.134 918.978 950.957C918.875 933.775 918.403 915.682 917.221 900.025C916.032 884.281 914.141 871.265 911.305 864.062C900.711 837.149 879.221 793.683 858.047 756.055C847.463 737.246 836.982 719.94 828.006 706.918C823.516 700.404 819.428 694.999 815.911 691.025C814.153 689.037 812.563 687.435 811.159 686.239C809.733 685.026 808.597 684.315 807.749 683.996C805.681 683.218 801.447 682.4 795.215 681.622C789.056 680.854 781.132 680.144 771.821 679.524C753.201 678.283 729.104 677.404 702.609 677.109Z" fill="#5A9AD9"/>
<path d="M564.806 963.958C567.725 959.258 572.865 956.399 578.398 956.399H780.722C786.19 956.399 791.279 959.19 794.216 963.802L829 1018.4H531L564.806 963.958Z" fill="#EAF4FD"/>
<path d="M781.233 956.406C786.506 956.575 791.371 959.335 794.217 963.802L829 1018.4H531L564.806 963.958C567.633 959.405 572.546 956.58 577.881 956.407L578.398 956.399H780.723L781.233 956.406ZM578.398 960.399C574.249 960.399 570.393 962.543 568.204 966.069L538.192 1014.4H821.709L790.843 965.95C788.639 962.492 784.823 960.399 780.723 960.399H578.398Z" fill="#5A9AD9"/>
<path d="M815 997.399L815 1001.4L544 1001.4L544 997.399L815 997.399Z" fill="#5A9AD9"/>
<path d="M804 980.399L804 984.399L556 984.399L556 980.399L804 980.399Z" fill="#5A9AD9"/>
<path d="M451.216 894.645C445.494 884.495 447.579 871.555 456.105 865.182C465.807 857.93 493.308 862.429 512.32 867.638C535.183 873.9 556.808 878.929 556.808 883.429C556.808 894.578 540.184 906.43 540.184 906.43H468.325C460.224 906.43 455.209 901.726 451.216 894.645Z" fill="#EAF4FD"/>
<path d="M466.066 859.788C470.488 859.25 475.576 859.303 480.887 859.744C491.511 860.627 503.266 863.083 512.849 865.708C524.219 868.823 535.427 871.67 543.738 874.287C547.889 875.595 551.436 876.88 553.972 878.159C555.232 878.794 556.351 879.48 557.182 880.239C557.978 880.966 558.808 882.035 558.808 883.43C558.808 886.701 557.595 889.886 555.939 892.733C554.274 895.593 552.084 898.247 549.942 900.492C547.795 902.743 545.654 904.627 544.054 905.947C543.252 906.608 542.582 907.131 542.109 907.491C541.873 907.67 541.686 907.81 541.556 907.906C541.491 907.953 541.44 907.99 541.404 908.016C541.387 908.029 541.372 908.039 541.362 908.046C541.358 908.05 541.354 908.052 541.351 908.054C541.349 908.055 541.348 908.056 541.347 908.057L541.345 908.059L540.823 908.43H468.325C463.848 908.43 460.149 907.118 457.035 904.797C453.961 902.506 451.543 899.297 449.474 895.627C443.338 884.743 445.453 870.648 454.907 863.58C457.74 861.463 461.683 860.323 466.066 859.788ZM480.556 863.731C475.402 863.303 470.607 863.265 466.55 863.759C462.454 864.258 459.32 865.276 457.302 866.785C449.706 872.463 447.65 884.247 452.958 893.662C454.881 897.074 456.968 899.758 459.425 901.589C461.842 903.39 464.701 904.43 468.325 904.43H539.523C539.574 904.392 539.629 904.352 539.687 904.308C540.123 903.976 540.752 903.486 541.509 902.862C543.025 901.611 545.041 899.835 547.049 897.73C549.063 895.618 551.029 893.218 552.481 890.721C553.917 888.253 554.776 885.817 554.805 883.547C554.767 883.489 554.68 883.37 554.485 883.193C554.044 882.79 553.295 882.296 552.171 881.73C549.938 880.604 546.649 879.397 542.536 878.102C534.32 875.514 523.284 872.715 511.792 869.567C502.362 866.984 490.86 864.587 480.556 863.731Z" fill="#5A9AD9"/>
<path d="M920.591 894.246C926.314 884.096 924.228 871.156 915.703 864.784C906 857.531 878.5 862.031 859.487 867.239C836.625 873.502 815 878.531 815 883.031C815 894.18 831.624 906.031 831.624 906.031H903.482C911.584 906.031 916.599 901.328 920.591 894.246Z" fill="#EAF4FD"/>
<path d="M905.741 859.39C901.319 858.851 896.231 858.904 890.921 859.346C880.297 860.228 868.542 862.684 858.959 865.309C847.589 868.424 836.381 871.271 828.069 873.889C823.918 875.196 820.372 876.481 817.836 877.76C816.575 878.395 815.457 879.081 814.626 879.84C813.829 880.567 813 881.636 813 883.031C813 886.302 814.213 889.487 815.869 892.334C817.533 895.194 819.724 897.848 821.865 900.093C824.013 902.344 826.153 904.228 827.754 905.548C828.555 906.209 829.225 906.732 829.698 907.092C829.934 907.271 830.122 907.411 830.252 907.507C830.317 907.554 830.368 907.591 830.403 907.617C830.421 907.63 830.435 907.64 830.445 907.647C830.45 907.651 830.454 907.653 830.457 907.655C830.458 907.656 830.46 907.657 830.461 907.658L830.463 907.66L830.984 908.031H903.482C907.959 908.031 911.658 906.719 914.772 904.398C917.847 902.107 920.265 898.898 922.334 895.228C928.47 884.345 926.355 870.249 916.9 863.181C914.067 861.064 910.124 859.924 905.741 859.39ZM891.252 863.332C896.406 862.904 901.201 862.866 905.258 863.36C909.354 863.859 912.487 864.877 914.506 866.386C922.102 872.064 924.158 883.848 918.85 893.264C916.926 896.675 914.839 899.359 912.383 901.19C909.966 902.991 907.107 904.031 903.482 904.031H832.284C832.233 903.993 832.179 903.953 832.121 903.909C831.685 903.577 831.055 903.087 830.299 902.463C828.782 901.212 826.767 899.436 824.759 897.331C822.745 895.22 820.779 892.819 819.326 890.322C817.89 887.854 817.032 885.418 817.003 883.148C817.04 883.09 817.128 882.971 817.322 882.794C817.763 882.391 818.513 881.897 819.637 881.331C821.87 880.205 825.159 878.998 829.271 877.703C837.488 875.115 848.523 872.316 860.016 869.168C869.446 866.585 880.947 864.188 891.252 863.332Z" fill="#5A9AD9"/>
<path d="M566.172 896.253C567.98 878.672 583.698 865.887 601.278 867.695L645.91 872.286C663.49 874.094 676.276 889.812 674.468 907.392L674.125 910.729C672.316 928.309 656.599 941.095 639.018 939.287L594.387 934.696C576.806 932.888 564.02 917.17 565.829 899.59L566.172 896.253Z" fill="#EAF4FD"/>
<path d="M639.427 935.308L639.018 939.287L594.387 934.696L594.796 930.717L639.427 935.308ZM670.146 910.32L670.489 906.983C672.071 891.6 660.884 877.847 645.501 876.265L600.869 871.674C585.486 870.092 571.733 881.279 570.151 896.662L569.808 899.999C568.225 915.382 579.413 929.135 594.796 930.717L594.387 934.696L593.566 934.601C576.41 932.396 564.049 916.895 565.829 899.59L566.172 896.253C567.952 878.947 583.21 866.288 600.455 867.621L601.278 867.695L645.91 872.286L646.731 872.381C663.886 874.586 676.248 890.087 674.468 907.392L674.125 910.729L674.029 911.55C671.859 928.433 656.813 940.673 639.841 939.361L639.018 939.287L639.427 935.308C654.81 936.89 668.563 925.703 670.146 910.32Z" fill="#5A9AD9"/>
<path d="M692.617 910.707C694.426 928.288 710.143 941.073 727.724 939.265L772.355 934.674C789.936 932.866 802.721 917.148 800.913 899.568L800.57 896.231C798.762 878.651 783.044 865.865 765.464 867.673L720.832 872.264C703.251 874.072 690.466 889.79 692.274 907.37L692.617 910.707Z" fill="#EAF4FD"/>
<path d="M765.873 871.652L765.464 867.673L720.832 872.264L721.241 876.243L765.873 871.652ZM796.591 896.64L796.934 899.977C798.516 915.36 787.329 929.113 771.946 930.695L727.314 935.286C711.932 936.868 698.179 925.681 696.596 910.298L696.253 906.961C694.671 891.578 705.858 877.825 721.241 876.243L720.832 872.264L720.011 872.359C702.855 874.564 690.494 890.065 692.274 907.37L692.617 910.707C694.397 928.013 709.655 940.672 726.901 939.339L727.724 939.265L772.355 934.674L773.176 934.579C790.332 932.374 802.693 916.873 800.913 899.568L800.57 896.231L800.475 895.41C798.304 878.527 783.258 866.287 766.286 867.599L765.464 867.673L765.873 871.652C781.256 870.07 795.009 881.257 796.591 896.64Z" fill="#5A9AD9"/>
<path d="M587 930L583 930L583 872L587 872L587 930Z" fill="#5A9AD9"/>
<path d="M611 935L607 935L607 871L611 871L611 935Z" fill="#5A9AD9"/>
<path d="M635 937L631 937L631 873L635 873L635 937Z" fill="#5A9AD9"/>
<path d="M659 933L655 933L655 877L659 877L659 933Z" fill="#5A9AD9"/>
<path d="M785 928L781 928L781 874L785 874L785 928Z" fill="#5A9AD9"/>
<path d="M761 936L757 936L757 869L761 869L761 936Z" fill="#5A9AD9"/>
<path d="M737 938L733 938L733 873L737 873L737 938Z" fill="#5A9AD9"/>
<path d="M713 934L709 934L709 876L713 876L713 934Z" fill="#5A9AD9"/>
<path d="M453 932.84L453 932.507C453 930.013 513.874 932.507 513.874 932.507C513.874 932.507 533.322 950.475 532.996 954.967C532.67 959.459 508.138 993.399 508.138 993.399H453.64C453.004 993.399 453.002 957.293 453 932.84Z" fill="#EAF4FD"/>
<path d="M462.471 929.455C468.22 929.338 475.862 929.417 483.478 929.572C491.099 929.729 498.719 929.962 504.431 930.157C507.287 930.255 509.667 930.343 511.334 930.406C512.167 930.438 512.823 930.464 513.27 930.482C513.493 930.491 513.665 930.497 513.78 930.501C513.838 930.504 513.882 930.506 513.911 930.507C513.926 930.508 513.937 930.508 513.944 930.508C513.948 930.508 513.951 930.509 513.953 930.509H513.955L514.691 930.539L515.231 931.038L515.235 931.042C515.238 931.045 515.242 931.048 515.247 931.053C515.257 931.062 515.271 931.076 515.29 931.093C515.328 931.128 515.384 931.18 515.456 931.247C515.601 931.382 515.812 931.58 516.08 931.832C516.616 932.337 517.381 933.062 518.297 933.946C520.127 935.712 522.569 938.119 525.005 940.672C527.433 943.217 529.89 945.944 531.732 948.345C532.651 949.542 533.454 950.705 534.025 951.757C534.544 952.712 535.076 953.929 534.99 955.112C534.947 955.714 534.733 956.347 534.521 956.88C534.29 957.459 533.977 958.117 533.61 958.826C532.875 960.248 531.861 961.991 530.678 963.915C528.307 967.769 525.189 972.463 522.097 976.994C519.001 981.531 515.916 985.924 513.607 989.182C512.453 990.811 511.492 992.158 510.818 993.097C510.482 993.567 510.217 993.934 510.036 994.185C509.946 994.31 509.877 994.406 509.83 994.471C509.807 994.503 509.788 994.529 509.776 994.545C509.771 994.553 509.767 994.56 509.764 994.564C509.762 994.566 509.761 994.567 509.76 994.569L509.759 994.57L509.16 995.399H453.641C453 995.399 452.54 995.105 452.291 994.882C452.056 994.671 451.923 994.452 451.86 994.339C451.735 994.111 451.676 993.903 451.652 993.817C451.597 993.613 451.565 993.401 451.545 993.243C451.501 992.901 451.465 992.445 451.434 991.917C451.37 990.846 451.317 989.312 451.272 987.423C451.182 983.638 451.122 978.346 451.082 972.303C451.002 960.212 451.001 945.065 451 932.84V932.507C451 931.309 451.903 930.717 452.153 930.569C452.504 930.36 452.883 930.239 453.169 930.163C453.772 930.003 454.553 929.889 455.412 929.801C457.161 929.622 459.605 929.514 462.471 929.455ZM483.396 933.572C475.793 933.416 468.217 933.338 462.553 933.454C459.712 933.513 457.4 933.619 455.819 933.781C455.504 933.813 455.232 933.847 455 933.88C455.001 945.918 455.004 960.541 455.082 972.276C455.122 978.315 455.182 983.578 455.271 987.327C455.312 989.036 455.36 990.412 455.412 991.399H507.112C507.244 991.216 507.396 991.005 507.566 990.767C508.236 989.832 509.194 988.491 510.344 986.868C512.645 983.622 515.715 979.25 518.793 974.739C521.874 970.225 524.95 965.592 527.271 961.82C528.433 959.93 529.389 958.283 530.058 956.989C530.393 956.341 530.641 955.81 530.806 955.398C530.988 954.94 531.004 954.782 531.001 954.822C530.997 954.881 530.993 954.554 530.511 953.667C530.081 952.877 529.418 951.9 528.559 950.781C526.846 948.549 524.504 945.941 522.11 943.433C519.725 940.933 517.325 938.567 515.519 936.823C514.616 935.953 513.864 935.24 513.338 934.744C513.233 934.646 513.137 934.556 513.051 934.475C512.608 934.457 511.977 934.434 511.183 934.404C509.52 934.34 507.144 934.253 504.294 934.156C498.592 933.961 490.993 933.727 483.396 933.572Z" fill="#5A9AD9"/>
<path d="M903 932.84L903 932.507C903 930.013 842.126 932.507 842.126 932.507C842.126 932.507 822.678 950.475 823.004 954.967C823.33 959.459 847.862 993.399 847.862 993.399H902.36C902.996 993.399 902.998 957.293 903 932.84Z" fill="#EAF4FD"/>
<path d="M893.529 929.455C887.78 929.338 880.138 929.417 872.522 929.572C864.901 929.729 857.281 929.962 851.569 930.157C848.713 930.255 846.333 930.343 844.666 930.406C843.833 930.438 843.177 930.464 842.73 930.482C842.507 930.491 842.335 930.497 842.22 930.501C842.162 930.504 842.118 930.506 842.089 930.507C842.074 930.508 842.063 930.508 842.056 930.508C842.052 930.508 842.049 930.509 842.047 930.509H842.045L841.309 930.539L840.769 931.038L840.765 931.042C840.762 931.045 840.758 931.048 840.753 931.053C840.743 931.062 840.729 931.076 840.71 931.093C840.672 931.128 840.616 931.18 840.544 931.247C840.399 931.382 840.188 931.58 839.92 931.832C839.384 932.337 838.619 933.062 837.703 933.946C835.873 935.712 833.431 938.119 830.995 940.672C828.567 943.217 826.11 945.944 824.268 948.345C823.349 949.542 822.546 950.705 821.975 951.757C821.456 952.712 820.924 953.929 821.01 955.112C821.053 955.714 821.267 956.347 821.479 956.88C821.71 957.459 822.023 958.117 822.39 958.826C823.125 960.248 824.139 961.991 825.322 963.915C827.693 967.769 830.811 972.463 833.903 976.994C836.999 981.531 840.084 985.924 842.393 989.182C843.547 990.811 844.508 992.158 845.182 993.097C845.518 993.567 845.783 993.934 845.964 994.185C846.054 994.31 846.123 994.406 846.17 994.471C846.193 994.503 846.212 994.529 846.224 994.545C846.229 994.553 846.233 994.56 846.236 994.564C846.238 994.566 846.239 994.567 846.24 994.569L846.241 994.57L846.84 995.399H902.359C903 995.399 903.46 995.105 903.709 994.882C903.944 994.671 904.077 994.452 904.14 994.339C904.265 994.111 904.324 993.903 904.348 993.817C904.403 993.613 904.435 993.401 904.455 993.243C904.499 992.901 904.535 992.445 904.566 991.917C904.63 990.846 904.683 989.312 904.728 987.423C904.818 983.638 904.878 978.346 904.918 972.303C904.998 960.212 904.999 945.065 905 932.84V932.507C905 931.309 904.097 930.717 903.847 930.569C903.496 930.36 903.117 930.239 902.831 930.163C902.228 930.003 901.447 929.889 900.588 929.801C898.839 929.622 896.395 929.514 893.529 929.455ZM872.604 933.572C880.207 933.416 887.783 933.338 893.447 933.454C896.288 933.513 898.6 933.619 900.181 933.781C900.496 933.813 900.768 933.847 901 933.88C900.999 945.918 900.996 960.541 900.918 972.276C900.878 978.315 900.818 983.578 900.729 987.327C900.688 989.036 900.64 990.412 900.588 991.399H848.888C848.756 991.216 848.604 991.005 848.434 990.767C847.764 989.832 846.806 988.491 845.656 986.868C843.355 983.622 840.285 979.25 837.207 974.739C834.126 970.225 831.05 965.592 828.729 961.82C827.567 959.93 826.611 958.283 825.942 956.989C825.607 956.341 825.359 955.81 825.194 955.398C825.012 954.94 824.996 954.782 824.999 954.822C825.003 954.881 825.007 954.554 825.489 953.667C825.919 952.877 826.582 951.9 827.441 950.781C829.154 948.549 831.496 945.941 833.89 943.433C836.275 940.933 838.675 938.567 840.481 936.823C841.384 935.953 842.136 935.24 842.662 934.744C842.767 934.646 842.863 934.556 842.949 934.475C843.392 934.457 844.023 934.434 844.817 934.404C846.48 934.34 848.856 934.253 851.706 934.156C857.408 933.961 865.007 933.727 872.604 933.572Z" fill="#5A9AD9"/>
<path d="M537.145 711.574C539.544 705.437 545.459 701.399 552.047 701.399H793.857C800.395 701.399 806.274 705.376 808.708 711.443L852 819.399H495L537.145 711.574Z" fill="#EAF4FD"/>
<path d="M794.468 701.41C800.759 701.649 806.351 705.565 808.708 711.444L852 819.399H495L537.146 711.573C539.469 705.629 545.093 701.653 551.432 701.41L552.048 701.399H793.857L794.468 701.41ZM552.048 705.399C547.106 705.399 542.67 708.428 540.871 713.031L500.858 815.399H846.086L804.995 712.932C803.17 708.381 798.76 705.399 793.857 705.399H552.048Z" fill="#5A9AD9"/>
<path d="M416.482 712.348C415.058 723.099 411.625 729.642 407.354 735.223C405.262 737.955 402.952 740.476 400.694 743.057C398.414 745.662 396.121 748.399 393.911 751.698C385.139 764.796 377.254 787.404 379.498 846.009C380.188 864.027 375.454 877.69 367.212 887.807C358.994 897.893 347.436 904.276 334.768 908.035C309.492 915.536 279.294 912.747 260.464 907.512C249.305 904.409 235.666 896.445 221.606 886.428C207.5 876.377 192.791 864.128 179.464 852.281C166.133 840.43 154.159 828.959 145.52 820.452C141.199 816.198 137.71 812.683 135.301 810.23C134.096 809.004 133.161 808.044 132.526 807.39C132.209 807.062 131.967 806.811 131.804 806.642C131.722 806.557 131.661 806.493 131.619 806.449C131.598 806.428 131.582 806.411 131.571 806.4C131.566 806.395 131.562 806.391 131.56 806.388C131.558 806.386 131.557 806.385 131.557 806.384C131.561 806.378 131.644 806.298 133 805C134.362 803.696 134.44 803.622 134.445 803.618C134.446 803.619 134.447 803.619 134.448 803.62C134.451 803.623 134.454 803.627 134.459 803.632C134.469 803.642 134.484 803.658 134.504 803.679C134.544 803.721 134.605 803.784 134.686 803.867C134.846 804.034 135.085 804.282 135.398 804.605C136.027 805.254 136.956 806.209 138.154 807.428C140.55 809.866 144.023 813.365 148.325 817.602C156.932 826.077 168.856 837.499 182.122 849.292C195.393 861.089 209.983 873.236 223.928 883.171C237.92 893.14 251.085 900.753 261.535 903.658C279.872 908.756 309.273 911.428 333.63 904.2C345.778 900.595 356.544 894.567 364.11 885.28C371.651 876.024 376.159 863.353 375.501 846.161C373.245 787.267 381.11 763.624 390.588 749.472C392.941 745.959 395.367 743.07 397.685 740.422C400.024 737.748 402.191 735.386 404.178 732.791C408.062 727.716 411.192 721.821 412.518 711.822L416.482 712.348Z" fill="#5A9AD9"/>
<path d="M418.5 670.585C398 664.173 406 712.585 406 712.585L388 748.086L391 760.586C391 760.586 409.56 734.445 422.5 722.586C433.142 712.833 440.113 706.086 454 706.086C480.5 706.086 547.139 738.086 548.5 734.586C550.833 728.586 555.2 716.286 554 715.086C552.8 713.886 464.332 684.921 418.5 670.585Z" fill="white"/>
<path d="M411.322 668.696C413.594 667.771 416.204 667.771 419.097 668.676C442.025 675.848 475.609 686.676 503.61 695.861C517.611 700.454 530.221 704.637 539.408 707.748C544 709.303 547.746 710.593 550.385 711.533C551.702 712.002 552.756 712.39 553.508 712.682C553.881 712.826 554.2 712.956 554.446 713.065C554.567 713.119 554.696 713.179 554.814 713.241C554.851 713.26 555.084 713.376 555.315 713.579L555.414 713.672L555.575 713.851C555.921 714.273 556.057 714.733 556.118 715.022C556.195 715.384 556.209 715.747 556.203 716.062C556.191 716.694 556.085 717.428 555.938 718.18C555.64 719.701 555.109 721.62 554.485 723.629C553.233 727.664 551.541 732.285 550.364 735.311C549.986 736.284 549.136 736.634 548.674 736.751C548.202 736.87 547.727 736.864 547.358 736.837C546.594 736.78 545.646 736.576 544.615 736.298C542.519 735.733 539.629 734.742 536.199 733.487C529.353 730.982 519.98 727.277 509.974 723.521C499.915 719.744 489.113 715.875 479.188 712.95C469.214 710.011 460.317 708.086 454 708.086C440.996 708.086 434.568 714.24 423.852 724.061C417.516 729.867 409.729 739.25 403.475 747.264C400.36 751.254 397.646 754.877 395.712 757.502C394.745 758.814 393.974 759.877 393.444 760.61C393.18 760.977 392.975 761.261 392.838 761.453C392.769 761.549 392.717 761.622 392.683 761.671L392.634 761.739C392.633 761.741 392.632 761.743 392.632 761.743L390.082 765.333L385.884 747.837L403.924 712.254C403.87 711.897 403.798 711.401 403.715 710.788C403.533 709.456 403.298 707.563 403.08 705.313C402.646 700.826 402.277 694.868 402.565 689.081C402.85 683.372 403.782 677.507 406.173 673.431C407.393 671.35 409.062 669.617 411.322 668.696ZM417.903 672.494C415.671 671.796 414.047 671.907 412.832 672.401C411.606 672.901 410.536 673.898 409.624 675.454C407.749 678.651 406.838 683.688 406.56 689.28C406.285 694.795 406.636 700.539 407.061 704.929C407.272 707.117 407.502 708.957 407.678 710.247C407.766 710.892 407.84 711.399 407.893 711.743C407.919 711.915 407.939 712.046 407.953 712.133C407.96 712.176 407.965 712.209 407.969 712.23C407.97 712.241 407.972 712.249 407.973 712.254V712.259L408.08 712.905L390.116 748.335L391.931 755.896C392.11 755.651 392.297 755.395 392.492 755.13C394.442 752.483 397.179 748.83 400.321 744.803C406.582 736.781 414.544 727.163 421.148 721.111C431.716 711.427 439.231 704.086 454 704.086C460.933 704.086 470.303 706.162 480.319 709.113C490.385 712.08 501.296 715.99 511.38 719.776C521.516 723.582 530.715 727.221 537.574 729.731C540.997 730.984 543.744 731.92 545.656 732.436C546.234 732.591 546.699 732.695 547.059 732.762C548.172 729.84 549.592 725.902 550.665 722.443C551.275 720.478 551.756 718.721 552.013 717.411C552.088 717.029 552.136 716.71 552.166 716.452C552.132 716.439 552.097 716.424 552.061 716.41C551.362 716.139 550.348 715.767 549.042 715.302C546.434 714.372 542.712 713.09 538.126 711.537C528.956 708.432 516.359 704.253 502.364 699.662C474.373 690.481 440.808 679.659 417.903 672.494Z" fill="#5A9AD9"/>
<path d="M443.999 740.449C449.211 723.679 467.031 714.31 483.801 719.522L-nan -nanL483.801 719.522C500.57 724.734 509.94 742.554 504.728 759.323L485.728 820.455L425 801.581L443.999 740.449Z" fill="white"/>
<path d="M500.908 758.136C505.464 743.476 497.274 727.898 482.613 723.342C467.953 718.786 452.376 726.976 447.819 741.636L430.007 798.948L483.096 815.448L500.908 758.136ZM485.728 820.455L425 801.58L443.999 740.449C449.211 723.679 467.031 714.31 483.801 719.522C500.57 724.734 509.94 742.554 504.728 759.323L485.728 820.455Z" fill="#5A9AD9"/>
<path d="M483.887 712L492.446 714.781L489.56 723.664L481 720.883L483.887 712Z" fill="#5A9AD9"/>
<path d="M324.354 822C324.354 822 266.549 776.374 270.5 773C294.5 752.5 291.051 738.508 296.273 741.805C304.5 747 333.5 777.5 333.5 777.5C333.5 777.5 375.587 741.628 387 739C396.368 736.842 409 753 406 758.999C403 764.999 324.354 822 324.354 822Z" fill="white"/>
<path d="M325.527 823.619L324.302 824.507L323.115 823.57L324.353 821.999L325.527 823.619ZM386.551 737.051C389.529 736.365 392.583 737.169 395.282 738.605C397.998 740.049 400.545 742.226 402.643 744.624C404.74 747.021 406.467 749.73 407.476 752.312C408.445 754.79 408.928 757.616 407.789 759.894C407.439 760.594 406.729 761.377 406.009 762.104C405.22 762.899 404.182 763.853 402.947 764.934C400.474 767.098 397.127 769.84 393.22 772.941C385.403 779.146 375.273 786.847 365.251 794.351C355.225 801.856 345.294 809.173 337.871 814.612C334.159 817.333 331.073 819.584 328.916 821.155C327.837 821.941 326.99 822.556 326.413 822.976C326.124 823.185 325.903 823.346 325.754 823.454C325.679 823.508 325.623 823.55 325.585 823.577L325.531 823.616C325.53 823.617 325.529 823.618 325.528 823.618C325.525 823.616 325.474 823.545 324.353 821.999C323.189 823.475 323.119 823.564 323.114 823.569L323.112 823.568C323.11 823.566 323.107 823.564 323.103 823.561C323.096 823.555 323.086 823.546 323.072 823.535C323.044 823.513 323.002 823.48 322.947 823.437C322.837 823.35 322.674 823.222 322.463 823.054C322.039 822.718 321.419 822.224 320.631 821.596C319.055 820.339 316.809 818.541 314.127 816.373C308.763 812.038 301.647 806.219 294.652 800.291C287.666 794.371 280.767 788.313 275.85 783.51C273.404 781.119 271.385 778.978 270.092 777.289C269.46 776.464 268.906 775.625 268.595 774.844C268.359 774.25 267.864 772.621 269.201 771.479L270.285 770.541C281.276 760.906 286.032 752.862 288.635 747.592C289.319 746.208 289.851 745.024 290.339 743.977C290.804 742.977 291.265 742.024 291.759 741.289C292.236 740.58 292.988 739.696 294.19 739.411C295.42 739.12 296.517 739.593 297.341 740.113C299.578 741.526 303.063 744.535 306.92 748.107C310.822 751.721 315.238 756.041 319.385 760.186C323.535 764.333 327.425 768.316 330.277 771.262C331.682 772.713 332.836 773.913 333.645 774.757C333.771 774.652 333.904 774.54 334.044 774.422C335.221 773.433 336.914 772.017 338.981 770.311C343.114 766.899 348.748 762.32 354.742 757.656C360.731 752.997 367.104 748.234 372.71 744.464C375.512 742.58 378.146 740.927 380.461 739.655C382.738 738.404 384.843 737.444 386.551 737.051ZM393.404 742.137C391.194 740.962 389.154 740.556 387.449 740.948C386.303 741.212 384.596 741.948 382.387 743.161C380.216 744.354 377.69 745.935 374.941 747.783C369.446 751.479 363.157 756.177 357.198 760.814C351.244 765.446 345.642 769.999 341.527 773.396C339.47 775.093 337.786 776.501 336.617 777.484C336.032 777.975 335.577 778.36 335.267 778.622C335.113 778.753 334.995 778.854 334.916 778.921C334.877 778.954 334.847 778.979 334.827 778.996C334.817 779.005 334.809 779.012 334.804 779.016C334.802 779.018 334.8 779.019 334.799 779.02L334.798 779.022L333.355 780.25L332.051 778.877L332.046 778.872C332.042 778.869 332.037 778.863 332.03 778.856C332.016 778.841 331.996 778.82 331.968 778.791C331.914 778.734 331.832 778.648 331.725 778.536C331.512 778.313 331.197 777.984 330.794 777.563C329.987 776.721 328.824 775.512 327.403 774.044C324.561 771.109 320.686 767.142 316.557 763.015C312.426 758.886 308.05 754.606 304.201 751.041C300.306 747.433 297.081 744.681 295.205 743.496C295.177 743.479 295.151 743.464 295.127 743.449C295.111 743.471 295.094 743.496 295.077 743.522C294.785 743.956 294.448 744.627 293.965 745.665C293.503 746.656 292.933 747.925 292.221 749.364C289.39 755.096 284.255 763.693 272.569 773.853C272.727 774.112 272.952 774.446 273.267 774.858C274.379 776.31 276.228 778.287 278.645 780.649C283.456 785.349 290.267 791.332 297.238 797.239C304.201 803.14 311.29 808.938 316.64 813.263C319.315 815.425 321.555 817.217 323.125 818.469C323.621 818.865 324.051 819.206 324.406 819.488C324.956 819.089 325.682 818.563 326.561 817.922C328.716 816.353 331.798 814.103 335.507 811.386C342.923 805.951 352.842 798.643 362.853 791.149C372.867 783.652 382.961 775.977 390.733 769.808C394.622 766.721 397.911 764.026 400.313 761.924C401.516 760.872 402.475 759.986 403.169 759.287C403.515 758.938 403.778 758.652 403.966 758.427C404.136 758.222 404.2 758.121 404.211 758.105C404.571 757.383 404.6 755.939 403.752 753.768C402.943 751.7 401.489 749.38 399.633 747.258C397.777 745.137 395.598 743.303 393.404 742.137Z" fill="#5A9AD9"/>
<path d="M754 619C777.216 619 796.498 635.834 800.312 657.961C802.77 657.334 805.346 657 808 657C817.665 657 826.296 661.425 831.981 668.357C836.031 666.835 840.418 666 845 666C865.435 666 882 682.565 882 703C882 704.953 881.846 706.87 881.555 708.741C891.75 712.6 899 722.453 899 734C899 748.912 886.912 761 872 761C859.147 761 848.393 752.019 845.668 739.991C845.446 739.995 845.223 740 845 740C830.217 740 817.46 731.33 811.534 718.798C810.374 718.93 809.195 719 808 719C796.779 719 786.951 713.037 781.51 704.108C773.776 709.701 764.274 713 754 713C736.911 713 721.954 703.879 713.728 690.24C710.53 691.378 707.088 692 703.5 692C693.642 692 684.877 687.322 679.302 680.065C674.132 689.558 664.069 696 652.5 696C643.716 696 635.802 692.286 630.236 686.344C626.214 690.741 620.429 693.5 614 693.5C601.85 693.5 592 683.65 592 671.5C592 659.35 601.85 649.5 614 649.5C617.984 649.5 621.721 650.559 624.944 652.411C629.843 642.116 640.34 635 652.5 635C662.358 635 671.122 639.678 676.697 646.934C681.867 637.442 691.931 631 703.5 631C709.015 631 714.189 632.464 718.653 635.024C727.268 625.202 739.909 619 754 619Z" fill="white"/>
<path d="M849.569 739.107C851.891 749.353 861.057 757 872 757V761C859.147 761 848.393 752.019 845.668 739.991C845.446 739.995 845.223 740 845 740V736C845.178 736 845.352 735.997 845.598 735.992L848.851 735.935L849.569 739.107ZM815.15 717.088C820.441 728.275 831.822 736 845 736V740C830.217 740 817.46 731.33 811.534 718.798C810.374 718.93 809.195 719 808 719V715C809.038 715 810.066 714.939 811.083 714.823L813.927 714.501L815.15 717.088ZM784.926 702.027C789.672 709.815 798.232 715 808 715V719C796.779 719 786.951 713.037 781.51 704.108C773.776 709.701 764.274 713 754 713V709C763.404 709 772.091 705.984 779.166 700.867L782.673 698.331L784.926 702.027ZM717.152 688.174C724.685 700.662 738.371 709 754 709V713C736.911 713 721.954 703.879 713.728 690.24C710.53 691.378 707.088 692 703.5 692V688C706.623 688 709.612 687.459 712.387 686.472L715.465 685.376L717.152 688.174ZM633.156 683.609C637.997 688.778 644.869 692 652.5 692V696C643.716 696 635.802 692.286 630.236 686.344C626.214 690.741 620.429 693.5 614 693.5V689.5C619.26 689.5 623.988 687.248 627.285 683.644L630.201 680.455L633.156 683.609ZM682.474 677.628C687.325 683.942 694.937 688 703.5 688V692C693.642 692 684.877 687.322 679.302 680.065C674.132 689.558 664.069 696 652.5 696V692C662.546 692 671.292 686.41 675.789 678.152L678.729 672.755L682.474 677.628ZM592 671.5C592 659.35 601.85 649.5 614 649.5C617.984 649.5 621.721 650.559 624.944 652.411C629.843 642.116 640.34 635 652.5 635C662.358 635 671.122 639.678 676.697 646.934C681.867 637.442 691.931 631 703.5 631C709.015 631 714.189 632.464 718.653 635.024C727.268 625.202 739.909 619 754 619C777.216 619 796.498 635.834 800.312 657.961C802.77 657.334 805.346 657 808 657C817.665 657 826.296 661.425 831.981 668.357C836.031 666.835 840.418 666 845 666C865.435 666 882 682.565 882 703C882 704.953 881.846 706.87 881.555 708.741C891.75 712.6 899 722.453 899 734C899 748.912 886.912 761 872 761V757C884.703 757 895 746.703 895 734C895 724.17 888.831 715.772 880.139 712.482L877.103 711.333L877.603 708.125C877.863 706.454 878 704.742 878 703C878 684.775 863.225 670 845 670C840.907 670 836.996 670.745 833.389 672.102L830.706 673.11L828.889 670.894C823.93 664.847 816.416 661 808 661C805.683 661 803.439 661.291 801.301 661.837L797.105 662.907L796.37 658.641C792.881 638.399 775.236 623 754 623C741.109 623 729.548 628.669 721.66 637.662L719.502 640.123L716.663 638.494C712.789 636.272 708.299 635 703.5 635C693.454 635 684.707 640.589 680.21 648.847L677.271 654.244L673.525 649.371C668.674 643.058 661.062 639 652.5 639C641.941 639 632.817 645.176 628.557 654.13L626.699 658.032L622.951 655.88C620.318 654.367 617.266 653.5 614 653.5C604.059 653.5 596 661.559 596 671.5C596 681.441 604.059 689.5 614 689.5V693.5C601.85 693.5 592 683.65 592 671.5Z" fill="#89B7E4"/>
<path d="M852 615C852 628.255 841.255 639 828 639C814.745 639 804 628.255 804 615C804 601.745 814.745 591 828 591C841.255 591 852 601.745 852 615Z" fill="white"/>
<path d="M848 615C848 603.954 839.046 595 828 595C816.954 595 808 603.954 808 615C808 626.046 816.954 635 828 635V639C814.745 639 804 628.255 804 615C804 601.745 814.745 591 828 591C841.255 591 852 601.745 852 615C852 628.255 841.255 639 828 639V635C839.046 635 848 626.046 848 615Z" fill="#89B7E4"/>
<path d="M933 710C933 716.627 927.627 722 921 722C914.373 722 909 716.627 909 710C909 703.373 914.373 698 921 698C927.627 698 933 703.373 933 710Z" fill="white"/>
<path d="M929 710C929 705.582 925.418 702 921 702C916.582 702 913 705.582 913 710C913 714.418 916.582 718 921 718V722C914.373 722 909 716.627 909 710C909 703.373 914.373 698 921 698C927.627 698 933 703.373 933 710C933 716.627 927.627 722 921 722V718C925.418 718 929 714.418 929 710Z" fill="#89B7E4"/>
<path d="M677.863 711.002L678.001 715L562 719L561.862 715.002L677.863 711.002Z" fill="#89B7E4"/>
<path d="M616.987 800.34L614 803L557 739L559.987 736.34L616.987 800.34Z" fill="#89B7E4"/>
<path d="M748.691 957.272C752.938 944.419 766.8 937.443 779.652 941.69C784.78 943.385 788.971 946.611 791.889 950.692C798.755 946.201 807.528 944.767 815.924 947.541C830.55 952.374 838.489 968.149 833.655 982.774C828.822 997.4 813.047 1005.34 798.421 1000.5C791.307 998.154 785.775 993.214 782.526 987.076C777.018 989.708 770.525 990.3 764.272 988.233C751.419 983.986 744.443 970.124 748.691 957.272ZM639.1 739.664C646.886 716.102 672.3 703.312 695.862 711.099C711.773 716.357 722.769 729.653 725.837 744.988C736.192 739.645 748.604 738.307 760.542 742.252C777.396 747.821 788.734 762.409 790.978 778.887C794.434 778.914 797.944 779.469 801.402 780.611C812.194 784.177 820 792.625 823.185 802.691C829.268 798.563 837.133 797.205 844.652 799.69C857.505 803.938 864.481 817.8 860.234 830.652C855.986 843.505 842.124 850.481 829.272 846.233C823.52 844.333 818.947 840.506 816.028 835.707C807.265 845.435 793.269 849.627 780.04 845.255C770.924 842.242 763.939 835.746 760.069 827.733C751.349 830.517 741.701 830.672 732.344 827.58C731.886 827.429 731.433 827.268 730.984 827.104C720.571 836.261 705.718 839.814 691.601 835.148C683.812 832.574 677.334 827.857 672.603 821.868C663.337 830.395 649.85 833.78 637.046 829.549C618.243 823.335 608.038 803.056 614.251 784.253C618.002 772.902 626.88 764.686 637.464 761.322C636.26 754.304 636.71 746.897 639.1 739.664Z" fill="white"/>
<path d="M748.691 957.272C752.938 944.419 766.8 937.443 779.652 941.69C784.78 943.385 788.971 946.611 791.889 950.692C798.755 946.201 807.528 944.767 815.924 947.541C830.55 952.374 838.489 968.149 833.655 982.774C828.822 997.4 813.047 1005.34 798.421 1000.5C791.307 998.154 785.775 993.214 782.526 987.076C777.018 989.708 770.525 990.3 764.272 988.233C751.419 983.986 744.443 970.124 748.691 957.272ZM778.398 945.488C767.643 941.934 756.043 947.772 752.488 958.526C748.934 969.281 754.772 980.881 765.527 984.436C770.761 986.165 776.187 985.672 780.801 983.467L784.265 981.813L786.061 985.205C788.847 990.467 793.581 994.693 799.676 996.707C812.204 1000.85 825.717 994.047 829.858 981.52C833.998 968.992 827.197 955.479 814.669 951.339C807.479 948.963 799.968 950.187 794.078 954.04L790.867 956.141L788.635 953.019C786.194 949.604 782.692 946.908 778.398 945.488ZM639.1 739.664C646.886 716.102 672.3 703.312 695.862 711.099C711.773 716.357 722.769 729.653 725.837 744.988C736.192 739.645 748.604 738.307 760.542 742.252C777.395 747.821 788.734 762.409 790.978 778.887C794.434 778.914 797.945 779.469 801.402 780.611C812.194 784.177 820 792.625 823.185 802.691C829.268 798.563 837.133 797.205 844.653 799.69C857.505 803.938 864.481 817.8 860.234 830.652C855.986 843.505 842.124 850.481 829.272 846.233C823.521 844.333 818.947 840.506 816.028 835.707C807.265 845.435 793.269 849.627 780.04 845.255C770.924 842.242 763.939 835.746 760.069 827.733C751.349 830.517 741.701 830.672 732.344 827.58C731.886 827.429 731.433 827.268 730.984 827.104C720.571 836.261 705.718 839.814 691.601 835.148C683.812 832.574 677.334 827.857 672.603 821.868C663.337 830.395 649.85 833.78 637.046 829.549C618.244 823.335 608.038 803.055 614.251 784.253C618.002 772.902 626.88 764.686 637.464 761.322C636.26 754.304 636.71 746.897 639.1 739.664ZM694.608 714.896C673.143 707.803 649.991 719.454 642.898 740.919C640.718 747.514 640.311 754.257 641.406 760.646L641.995 764.079L638.676 765.135C629.261 768.127 621.381 775.427 618.049 785.508C612.529 802.213 621.596 820.23 638.301 825.751C649.671 829.508 661.653 826.509 669.895 818.925L673.068 816.005L675.741 819.389C680.003 824.782 685.833 829.03 692.856 831.351C705.569 835.552 718.951 832.359 728.342 824.1L730.126 822.53L732.358 823.347C732.785 823.503 733.195 823.649 733.599 823.782C742.126 826.6 750.909 826.458 758.854 823.923L762.161 822.867L763.672 825.994C767.09 833.072 773.251 838.799 781.295 841.457C792.963 845.313 805.317 841.622 813.057 833.03L816.653 829.037L819.446 833.629C821.89 837.647 825.712 840.844 830.527 842.436C841.281 845.99 852.882 840.152 856.436 829.397C859.99 818.643 854.152 807.042 843.398 803.488C837.108 801.41 830.531 802.54 825.431 806.001L820.99 809.015L819.371 803.898C816.557 795.003 809.667 787.555 800.148 784.409C797.091 783.399 793.993 782.91 790.946 782.887L787.482 782.859L787.015 779.427C784.97 764.405 774.634 751.122 759.287 746.05C748.412 742.456 737.111 743.672 727.671 748.543L722.956 750.977L721.915 745.773C719.118 731.791 709.097 719.685 694.608 714.896Z" fill="#89B7E4"/>
<path d="M675.342 768.547C669.128 787.349 648.848 797.555 630.046 791.341C611.243 785.128 601.037 764.848 607.251 746.045C613.465 727.243 633.745 717.037 652.547 723.251C671.35 729.464 681.555 749.744 675.342 768.547Z" fill="white"/>
<path d="M696.342 757.547C690.128 776.349 669.848 786.555 651.046 780.341C632.243 774.128 622.037 753.848 628.251 735.045C634.465 716.243 654.745 706.037 673.547 712.251C692.35 718.464 702.555 738.744 696.342 757.547Z" fill="white"/>
<path d="M578.892 725.813L578.187 729.75L574 729L574.705 725.063L578.892 725.813ZM595.642 728.813L594.937 732.75L586.563 731.25L587.268 727.313L595.642 728.813ZM612.392 731.813L611.687 735.75L603.313 734.25L604.018 730.313L612.392 731.813ZM629.143 734.813L628.437 738.75L620.063 737.25L620.768 733.313L629.143 734.813ZM641.705 737.063L641 741L636.813 740.25L637.518 736.313L641.705 737.063Z" fill="#89B7E4"/>
<path d="M466.593 436.761L462.642 436.138L464.351 430L468.303 430.622L466.593 436.761ZM459.755 461.314L455.804 460.692L459.223 448.415L463.174 449.037L459.755 461.314ZM452.917 485.867L448.966 485.245L452.385 472.968L456.336 473.59L452.917 485.867ZM446.079 510.421L442.128 509.799L445.547 497.522L449.498 498.144L446.079 510.421ZM440.951 528.837L436.999 528.215L438.709 522.076L442.66 522.698L440.951 528.837Z" fill="#5A9AD9"/>
<path d="M694.593 436.761L690.642 436.138L692.351 430L696.303 430.622L694.593 436.761ZM687.755 461.314L683.804 460.692L687.223 448.415L691.174 449.037L687.755 461.314ZM680.917 485.867L676.966 485.245L680.385 472.968L684.336 473.59L680.917 485.867ZM674.079 510.421L670.128 509.799L673.547 497.522L677.498 498.144L674.079 510.421ZM668.951 528.837L664.999 528.215L666.709 522.076L670.66 522.698L668.951 528.837Z" fill="#5A9AD9"/>
<path d="M528.551 434.953L524.675 435.94L522 430L525.876 429.013L528.551 434.953ZM539.253 458.714L535.376 459.701L530.026 447.821L533.902 446.834L539.253 458.714ZM549.954 482.475L546.078 483.462L540.727 471.581L544.603 470.594L549.954 482.475ZM560.655 506.235L556.779 507.222L551.428 495.342L555.304 494.355L560.655 506.235ZM568.681 524.056L564.805 525.043L562.129 519.103L566.006 518.116L568.681 524.056Z" fill="#5A9AD9"/>
<path d="M756.551 434.953L752.675 435.94L750 430L753.876 429.013L756.551 434.953ZM767.253 458.714L763.376 459.701L758.026 447.821L761.902 446.834L767.253 458.714ZM777.954 482.475L774.078 483.462L768.727 471.581L772.603 470.594L777.954 482.475ZM788.655 506.235L784.779 507.222L779.428 495.342L783.304 494.355L788.655 506.235ZM796.681 524.056L792.805 525.043L790.129 519.103L794.006 518.116L796.681 524.056Z" fill="#5A9AD9"/>
<path d="M497 436.25L493 436.25L493 430L497 430L497 436.25ZM497 461.25L493 461.25L493 448.75L497 448.75L497 461.25ZM497 486.25L493 486.25L493 473.75L497 473.75L497 486.25ZM497 511.25L493 511.25L493 498.75L497 498.75L497 511.25ZM497 530L493 530L493 523.75L497 523.75L497 530Z" fill="#5A9AD9"/>
<path d="M725 436.25L721 436.25L721 430L725 430L725 436.25ZM725 461.25L721 461.25L721 448.75L725 448.75L725 461.25ZM725 486.25L721 486.25L721 473.75L725 473.75L725 486.25ZM725 511.25L721 511.25L721 498.75L725 498.75L725 511.25ZM725 530L721 530L721 523.75L725 523.75L725 530Z" fill="#5A9AD9"/>
<path d="M575.074 737.034L573.312 740.625L570 739L571.762 735.409L575.074 737.034ZM588.324 743.534L586.563 747.125L579.938 743.875L581.7 740.284L588.324 743.534ZM601.575 750.034L599.813 753.625L593.187 750.375L594.949 746.784L601.575 750.034ZM614.824 756.534L613.062 760.125L606.438 756.875L608.199 753.284L614.824 756.534ZM624.762 761.409L623 765L619.688 763.375L621.45 759.784L624.762 761.409Z" fill="#89B7E4"/>
<path d="M861 998C868.575 998 875.632 1000.19 881.559 1003.96C886.676 1002.05 892.216 1001 898 1001C915.742 1001 931.186 1010.83 939.186 1025.34C940.757 1025.12 942.365 1025 944 1025C952.721 1025 960.651 1028.33 966.551 1033.78C971.16 1031.37 976.418 1030 982 1030C1000.23 1030 1015 1044.55 1015 1062.5C1015 1080.45 1000.23 1095 982 1095C973.278 1095 965.349 1091.67 959.448 1086.22C954.839 1088.63 949.582 1090 944 1090C937.668 1090 931.753 1088.24 926.729 1085.2C918.784 1091.34 908.82 1095 898 1095C883.934 1095 871.313 1088.82 862.699 1079.03C855.825 1087.55 845.3 1093 833.5 1093C825.719 1093 818.492 1090.63 812.5 1086.57C806.508 1090.63 799.281 1093 791.5 1093C783.226 1093 775.58 1090.32 769.378 1085.78C762.613 1095.58 751.308 1102 738.5 1102C717.789 1102 701 1085.21 701 1064.5C701 1043.79 717.789 1027 738.5 1027C746.773 1027 754.42 1029.68 760.621 1034.22C767.386 1024.42 778.692 1018 791.5 1018C799.281 1018 806.508 1020.37 812.5 1024.43C816.81 1021.51 821.761 1019.46 827.097 1018.55C833.369 1006.35 846.196 998 861 998Z" fill="white"/>
<path d="M771.74 1082.55C777.28 1086.61 784.105 1089 791.5 1089V1093C783.226 1093 775.58 1090.32 769.378 1085.78C762.613 1095.58 751.308 1102 738.5 1102V1098C749.937 1098 760.035 1092.27 766.086 1083.51L768.423 1080.12L771.74 1082.55ZM865.703 1076.38C873.59 1085.35 885.132 1091 898 1091V1095C883.934 1095 871.313 1088.82 862.699 1079.03C855.825 1087.55 845.3 1093 833.5 1093V1089C844.039 1089 853.438 1084.14 859.586 1076.51L862.567 1072.82L865.703 1076.38ZM928.802 1081.78C933.217 1084.45 938.417 1086 944 1086V1090C937.668 1090 931.753 1088.24 926.729 1085.2C918.784 1091.34 908.82 1095 898 1095V1091C907.903 1091 917.012 1087.65 924.281 1082.03L926.453 1080.35L928.802 1081.78ZM962.16 1083.28C967.346 1088.07 974.315 1091 982 1091V1095C973.278 1095 965.349 1091.67 959.448 1086.22C954.839 1088.63 949.582 1090 944 1090V1086C948.922 1086 953.544 1084.8 957.595 1082.68L960.091 1081.37L962.16 1083.28ZM1011 1062.5C1011 1046.82 998.074 1034 982 1034C977.078 1034 972.454 1035.2 968.404 1037.32L965.908 1038.63L963.839 1036.72C958.653 1031.93 951.684 1029 944 1029C942.558 1029 941.141 1029.1 939.756 1029.3L937.018 1029.7L935.683 1027.28C928.358 1013.99 914.226 1005 898 1005C892.702 1005 887.636 1005.96 882.958 1007.71L881.093 1008.4L879.412 1007.33C874.11 1003.96 867.795 1002 861 1002C847.732 1002 836.258 1009.48 830.653 1020.38L829.741 1022.15L827.775 1022.49C823.013 1023.31 818.594 1025.13 814.743 1027.74L812.5 1029.26L810.257 1027.74C804.907 1024.12 798.457 1022 791.5 1022C780.063 1022 769.964 1027.73 763.913 1036.49L761.577 1039.88L758.259 1037.45C752.719 1033.39 745.895 1031 738.5 1031C719.998 1031 705 1046 705 1064.5C705 1083 719.998 1098 738.5 1098V1102C717.789 1102 701 1085.21 701 1064.5C701 1043.79 717.789 1027 738.5 1027C746.773 1027 754.42 1029.68 760.621 1034.22C767.386 1024.42 778.692 1018 791.5 1018C799.281 1018 806.508 1020.37 812.5 1024.43C816.81 1021.51 821.761 1019.46 827.097 1018.55C833.369 1006.35 846.196 998 861 998C868.575 998 875.632 1000.19 881.559 1003.96C886.676 1002.05 892.216 1001 898 1001C915.742 1001 931.186 1010.83 939.186 1025.34C940.757 1025.12 942.365 1025 944 1025C952.721 1025 960.651 1028.33 966.551 1033.78C971.16 1031.37 976.418 1030 982 1030C1000.23 1030 1015 1044.55 1015 1062.5C1015 1080.45 1000.23 1095 982 1095V1091C998.074 1091 1011 1078.18 1011 1062.5ZM814.743 1083.26C820.094 1086.88 826.544 1089 833.5 1089V1093C825.719 1093 818.492 1090.63 812.5 1086.57C806.508 1090.63 799.281 1093 791.5 1093V1089C798.456 1089 804.906 1086.88 810.257 1083.26L812.5 1081.74L814.743 1083.26Z" fill="#89B7E4"/>
<path d="M907.179 835.934C927.532 839.764 940.969 859.148 937.19 879.23C936.85 881.036 936.381 882.786 935.796 884.473C944.294 892.849 948.609 905.073 946.258 917.568C944.841 925.098 941.204 931.658 936.139 936.713C939.863 941.51 941.595 947.756 940.399 954.115C939.093 961.055 934.585 966.602 928.641 969.579C931.403 974.055 932.572 979.489 931.533 985.008C929.287 996.949 917.566 1004.77 905.353 1002.47C893.141 1000.17 885.063 988.628 887.309 976.687C888.615 969.747 893.122 964.199 899.066 961.221C896.305 956.746 895.136 951.313 896.175 945.794C896.209 945.612 896.245 945.43 896.284 945.25C879.533 939.011 869.176 921.634 872.551 903.7C872.891 901.893 873.36 900.143 873.944 898.456C865.447 890.08 861.133 877.857 863.484 865.362C867.262 845.28 886.825 832.104 907.179 835.934Z" fill="white"/>
<path d="M927.602 984.269C928.448 979.777 927.502 975.351 925.237 971.68L922.942 967.96L926.85 966.003C931.744 963.551 935.407 959.015 936.468 953.375C937.441 948.205 936.042 943.111 932.979 939.167L930.813 936.377L933.313 933.882C937.828 929.376 941.064 923.538 942.327 916.828C944.418 905.711 940.59 894.814 932.989 887.321L931.191 885.549L932.016 883.163C932.538 881.658 932.957 880.099 933.259 878.49C936.62 860.629 924.671 843.296 906.439 839.865C888.206 836.435 870.775 848.24 867.415 866.102C865.323 877.218 869.152 888.115 876.753 895.608L878.55 897.38L877.724 899.765C877.203 901.269 876.785 902.829 876.482 904.439C873.481 920.39 882.686 935.916 897.68 941.501L900.92 942.708L900.195 946.089C900.164 946.234 900.134 946.382 900.106 946.533C899.261 951.024 900.205 955.451 902.47 959.121L904.766 962.84L900.858 964.798C895.964 967.25 892.302 971.786 891.24 977.427C889.418 987.114 895.968 996.632 906.093 998.537L905.353 1002.47C893.141 1000.17 885.063 988.628 887.309 976.687C888.615 969.747 893.122 964.199 899.066 961.221C896.305 956.746 895.136 951.313 896.175 945.794C896.209 945.612 896.245 945.43 896.284 945.25C879.533 939.011 869.176 921.634 872.551 903.7C872.891 901.893 873.36 900.143 873.944 898.456C865.447 890.08 861.133 877.857 863.484 865.362C867.262 845.28 886.825 832.104 907.179 835.934C927.532 839.764 940.969 859.148 937.19 879.23C936.85 881.036 936.381 882.786 935.796 884.473C944.294 892.849 948.609 905.073 946.258 917.568C944.841 925.098 941.204 931.658 936.139 936.713C939.863 941.51 941.595 947.756 940.399 954.115C939.093 961.055 934.585 966.602 928.641 969.579C931.403 974.055 932.572 979.489 931.533 985.008C929.287 996.949 917.566 1004.77 905.353 1002.47L906.093 998.537C916.218 1000.44 925.78 993.955 927.602 984.269Z" fill="#89B7E4"/>
<path d="M282.178 731.469L305.84 753.012L279.792 781.622L256.13 760.078L282.178 731.469Z" fill="white"/>
</svg>
