<svg width="3346" height="3346" viewBox="0 0 3346 3346" fill="none" xmlns="http://www.w3.org/2000/svg">
<path d="M3346 1673C3346 2596.97 2596.97 3346 1673 3346C749.028 3346 0 2596.97 0 1673C0 749.028 749.028 0 1673 0C2596.97 0 3346 749.028 3346 1673Z" fill="#EAF4FD"/>
<path d="M557.394 2144H2769.73L3120 2517H188L557.394 2144Z" fill="#FFF0F0" fill-opacity="0.33"/>
<mask id="path-3-inside-1_118_3" fill="white">
<path d="M607.5 175C694.174 175 766.655 235.755 784.687 317H821C891.692 317 949 374.308 949 445C949 515.692 891.692 573 821 573H383C312.308 573 255 515.692 255 445C255 374.308 312.308 317 383 317H430.313C448.345 235.755 520.826 175 607.5 175Z"/>
</mask>
<path d="M607.5 175C694.174 175 766.655 235.755 784.687 317H821C891.692 317 949 374.308 949 445C949 515.692 891.692 573 821 573H383C312.308 573 255 515.692 255 445C255 374.308 312.308 317 383 317H430.313C448.345 235.755 520.826 175 607.5 175Z" fill="white"/>
<path d="M784.687 317L780.782 317.867L781.477 321H784.687V317ZM821 317V313V313V317ZM383 573V577V577V573ZM430.313 317V321H433.523L434.218 317.867L430.313 317ZM607.5 175V179C692.258 179 763.147 238.412 780.782 317.867L784.687 317L788.591 316.133C770.162 233.097 696.089 171 607.5 171V175ZM784.687 317V321H821V317V313H784.687V317ZM821 317V321C889.483 321 945 376.517 945 445H949H953C953 372.098 893.902 313 821 313V317ZM949 445H945C945 513.483 889.483 569 821 569V573V577C893.902 577 953 517.902 953 445H949ZM821 573V569H383V573V577H821V573ZM383 573V569C314.517 569 259 513.483 259 445H255H251C251 517.902 310.098 577 383 577V573ZM255 445H259C259 376.517 314.517 321 383 321V317V313C310.098 313 251 372.098 251 445H255ZM383 317V321H430.313V317V313H383V317ZM430.313 317L434.218 317.867C451.853 238.412 522.742 179 607.5 179V175V171C518.911 171 444.838 233.097 426.408 316.133L430.313 317Z" fill="#5A9AD9" mask="url(#path-3-inside-1_118_3)"/>
<path d="M2398 1136V2140H909V1136H2398Z" fill="#EAF4FD" stroke="#5A9AD9" stroke-width="8"/>
<path d="M1042.65 941L1047 2146.23L715 2513.8V941H1042.65Z" fill="#F1F1F1" stroke="#4384C3" stroke-width="4"/>
<path d="M2300.48 943.5L2296.14 2146.24L2628.13 2516.28V943.5H2300.48Z" fill="#F1F1F1" stroke="#4384C3" stroke-width="4"/>
<path d="M2779.42 905L2298.39 1227H1045.11L565.072 905H2779.42Z" fill="#F1F1F1" stroke="#4384C3" stroke-width="4"/>
<rect x="432" y="749" width="2482" height="191" fill="white" stroke="#5A9AD9" stroke-width="4"/>
<rect x="572" y="940" width="143" height="1576" fill="white" stroke="#5A9AD9" stroke-width="4"/>
<rect x="2628" y="940" width="147" height="1576" fill="white" stroke="#5A9AD9" stroke-width="4"/>
<line x1="188" y1="2519" x2="3301" y2="2519" stroke="#5A9AD9" stroke-width="6"/>
<path d="M1205.58 1311.43L1236.29 1375.44L1209.24 1388.42L1178.53 1324.41L1205.58 1311.43Z" fill="white" stroke="#5A9AD9" stroke-width="4"/>
<path d="M1201.77 1423.66L1196.52 1425.23L1195 1416.64L1200.24 1415.07L1201.77 1423.66ZM1207.87 1458L1202.62 1459.57L1199.57 1442.4L1204.82 1440.83L1207.87 1458ZM1213.97 1492.34L1208.72 1493.91L1205.67 1476.74L1210.92 1475.17L1213.97 1492.34ZM1220.07 1526.68L1214.82 1528.25L1211.77 1511.08L1217.02 1509.51L1220.07 1526.68ZM1224.64 1552.43L1219.4 1554L1217.87 1545.42L1223.11 1543.85L1224.64 1552.43Z" fill="#5A9AD9"/>
<path d="M1277.14 1384.75L1272.94 1388.26L1266.12 1382.52L1270.32 1379L1277.14 1384.75ZM1304.4 1407.73L1300.21 1411.24L1286.57 1399.75L1290.77 1396.24L1304.4 1407.73ZM1331.67 1430.71L1327.47 1434.22L1313.84 1422.73L1318.04 1419.22L1331.67 1430.71ZM1358.94 1453.68L1354.74 1457.2L1341.11 1445.71L1345.31 1442.19L1358.94 1453.68ZM1379.39 1470.92L1375.19 1474.43L1368.38 1468.69L1372.57 1465.17L1379.39 1470.92Z" fill="#5A9AD9"/>
<path d="M1238.98 1405.03L1234.04 1407.39L1230.34 1399.68L1235.28 1397.32L1238.98 1405.03ZM1253.78 1435.87L1248.84 1438.24L1241.44 1422.82L1246.38 1420.45L1253.78 1435.87ZM1268.58 1466.71L1263.64 1469.08L1256.24 1453.66L1261.18 1451.29L1268.58 1466.71ZM1283.38 1497.55L1278.44 1499.92L1271.04 1484.5L1275.98 1482.13L1283.38 1497.55ZM1294.48 1520.69L1289.54 1523.05L1285.84 1515.34L1290.78 1512.97L1294.48 1520.69Z" fill="#5A9AD9"/>
<path d="M1268.02 1381.42C1265.49 1376.37 1261.98 1371.87 1257.71 1368.18C1253.44 1364.49 1248.48 1361.68 1243.12 1359.91C1237.76 1358.13 1232.1 1357.43 1226.47 1357.84C1220.83 1358.25 1215.34 1359.77 1210.29 1362.31C1205.25 1364.84 1200.75 1368.35 1197.06 1372.62C1193.37 1376.9 1190.56 1381.86 1188.78 1387.22C1187.01 1392.58 1186.31 1398.24 1186.72 1403.87C1187.13 1409.5 1188.65 1414.99 1191.19 1420.04L1229.61 1400.73L1268.02 1381.42Z" fill="white"/>
<path d="M1213.96 1360.29L1213.96 1360.29C1218.74 1358.03 1223.9 1356.67 1229.18 1356.29C1234.81 1355.88 1240.47 1356.58 1245.84 1358.36C1251.2 1360.14 1256.16 1362.96 1260.44 1366.66C1264.21 1369.92 1267.38 1373.81 1269.82 1378.15L1233.23 1396.54L1233.15 1396.37L1269.61 1378.04L1268.42 1376.17C1266.19 1372.68 1263.46 1369.52 1260.32 1366.8C1256.06 1363.12 1251.12 1360.32 1245.78 1358.54C1240.44 1356.77 1234.81 1356.07 1229.2 1356.48C1223.59 1356.89 1218.12 1358.4 1213.09 1360.92C1208.07 1363.45 1203.59 1366.94 1199.92 1371.2C1196.25 1375.45 1193.45 1380.39 1191.68 1385.74C1189.92 1391.08 1189.23 1396.72 1189.64 1402.33C1189.94 1406.48 1190.85 1410.55 1192.32 1414.42L1193.11 1416.49L1229.57 1398.16L1229.66 1398.33L1193.07 1416.73C1191.19 1412.5 1190 1408 1189.54 1403.4L1189.45 1402.34C1189.06 1397.06 1189.65 1391.76 1191.18 1386.71L1191.51 1385.67C1193.06 1380.96 1195.42 1376.55 1198.48 1372.65L1199.1 1371.88L1199.78 1371.06C1203.47 1366.79 1207.96 1363.29 1213 1360.76L1213.96 1360.29Z" stroke="#5A9AD9" stroke-width="4"/>
<path d="M2145.16 1314.43L2114.44 1378.44L2141.49 1391.42L2172.2 1327.41L2145.16 1314.43Z" fill="white" stroke="#5A9AD9" stroke-width="4"/>
<path d="M2151.18 1424.38L2156.15 1425.87L2157.6 1417.73L2152.63 1416.24L2151.18 1424.38ZM2145.4 1456.95L2150.37 1458.44L2153.26 1442.16L2148.29 1440.66L2145.4 1456.95ZM2139.61 1489.52L2144.58 1491.01L2147.48 1474.72L2142.5 1473.23L2139.61 1489.52ZM2133.83 1522.08L2138.8 1523.57L2141.69 1507.29L2136.72 1505.8L2133.83 1522.08ZM2129.49 1546.51L2134.46 1548L2135.91 1539.86L2130.94 1538.37L2129.49 1546.51Z" fill="#5A9AD9"/>
<path d="M2079.7 1387.48L2083.68 1390.81L2090.15 1385.36L2086.17 1382.03L2079.7 1387.48ZM2053.84 1409.27L2057.82 1412.6L2070.75 1401.71L2066.77 1398.38L2053.84 1409.27ZM2027.98 1431.07L2031.96 1434.4L2044.89 1423.5L2040.91 1420.17L2027.98 1431.07ZM2002.12 1452.86L2006.1 1456.19L2019.03 1445.29L2015.05 1441.96L2002.12 1452.86ZM1982.72 1469.2L1986.7 1472.53L1993.17 1467.09L1989.19 1463.76L1982.72 1469.2Z" fill="#5A9AD9"/>
<path d="M2112.07 1401.97L2116.75 1404.22L2120.26 1396.91L2115.58 1394.66L2112.07 1401.97ZM2098.04 1431.23L2102.72 1433.47L2109.74 1418.85L2105.06 1416.6L2098.04 1431.23ZM2084 1460.48L2088.68 1462.72L2095.7 1448.1L2091.02 1445.85L2084 1460.48ZM2069.97 1489.73L2074.65 1491.97L2081.66 1477.35L2076.98 1475.1L2069.97 1489.73ZM2059.44 1511.67L2064.12 1513.91L2067.63 1506.6L2062.95 1504.35L2059.44 1511.67Z" fill="#5A9AD9"/>
<path d="M2081.05 1382.44C2083.59 1377.4 2087.1 1372.9 2091.37 1369.21C2095.64 1365.52 2100.6 1362.71 2105.96 1360.93C2111.32 1359.16 2116.98 1358.46 2122.61 1358.87C2128.25 1359.28 2133.74 1360.8 2138.79 1363.33C2143.83 1365.87 2148.33 1369.38 2152.02 1373.65C2155.71 1377.92 2158.52 1382.88 2160.3 1388.24C2162.07 1393.6 2162.77 1399.26 2162.36 1404.89C2161.95 1410.52 2160.43 1416.02 2157.89 1421.07L2119.47 1401.75L2081.05 1382.44Z" fill="white"/>
<path d="M2136.78 1363.32L2136.78 1363.32C2132 1361.06 2126.83 1359.71 2121.55 1359.32C2115.92 1358.91 2110.26 1359.62 2104.9 1361.4C2099.54 1363.18 2094.57 1365.99 2090.3 1369.69C2086.52 1372.95 2083.35 1376.84 2080.91 1381.18L2117.5 1399.57L2117.59 1399.4L2081.12 1381.07L2082.32 1379.2C2084.54 1375.71 2087.27 1372.55 2090.42 1369.83C2094.67 1366.15 2099.61 1363.35 2104.95 1361.58C2110.29 1359.81 2115.93 1359.1 2121.54 1359.51C2127.14 1359.92 2132.62 1361.43 2137.64 1363.95C2142.66 1366.48 2147.14 1369.97 2150.81 1374.23C2154.49 1378.49 2157.29 1383.43 2159.05 1388.77C2160.81 1394.11 2161.51 1399.75 2161.1 1405.36C2160.79 1409.51 2159.88 1413.58 2158.41 1417.45L2157.62 1419.52L2121.16 1401.2L2121.07 1401.37L2157.66 1419.76C2159.54 1415.53 2160.74 1411.03 2161.19 1406.43L2161.28 1405.37C2161.67 1400.1 2161.08 1394.8 2159.55 1389.74L2159.23 1388.71C2157.67 1383.99 2155.31 1379.58 2152.26 1375.68L2151.64 1374.91L2150.95 1374.09C2147.26 1369.82 2142.77 1366.32 2137.74 1363.79L2136.78 1363.32Z" stroke="#5A9AD9" stroke-width="4"/>
<line x1="860" y1="2480" x2="974" y2="2480" stroke="#5A9AD9" stroke-width="12"/>
<line x1="2370" y1="2480" x2="2484" y2="2480" stroke="#5A9AD9" stroke-width="12"/>
<mask id="path-27-inside-2_118_3" fill="white">
<path d="M2224 1254C2359.86 1254 2470 1364.14 2470 1500V2479H2385.44V1507.16C2385.44 1419.35 2314.25 1348.16 2226.44 1348.16H1118.56C1030.75 1348.16 959.563 1419.35 959.562 1507.16V2479H875V1500C875 1364.14 985.138 1254 1121 1254H2224Z"/>
</mask>
<path d="M2224 1254C2359.86 1254 2470 1364.14 2470 1500V2479H2385.44V1507.16C2385.44 1419.35 2314.25 1348.16 2226.44 1348.16H1118.56C1030.75 1348.16 959.563 1419.35 959.562 1507.16V2479H875V1500C875 1364.14 985.138 1254 1121 1254H2224Z" fill="white"/>
<path d="M2470 1500H2474V1500H2470ZM2470 2479V2483H2474V2479H2470ZM2385.44 2479H2381.44V2483H2385.44V2479ZM2385.44 1507.16H2389.44V1507.16L2385.44 1507.16ZM2226.44 1348.16V1344.16V1344.16V1348.16ZM1118.56 1348.16V1344.16H1118.56L1118.56 1348.16ZM959.562 1507.16L955.562 1507.16V1507.16H959.562ZM959.562 2479V2483H963.562V2479H959.562ZM875 2479H871V2483H875V2479ZM1121 1254V1250V1250V1254ZM2224 1254V1258C2357.65 1258 2466 1366.35 2466 1500H2470H2474C2474 1361.93 2362.07 1250 2224 1250V1254ZM2470 1500H2466V2479H2470H2474V1500H2470ZM2470 2479V2475H2385.44V2479V2483H2470V2479ZM2385.44 2479H2389.44V1507.16H2385.44H2381.44V2479H2385.44ZM2385.44 1507.16L2389.44 1507.16C2389.44 1417.14 2316.46 1344.16 2226.44 1344.16V1348.16V1352.16C2312.04 1352.16 2381.44 1421.56 2381.44 1507.16L2385.44 1507.16ZM2226.44 1348.16V1344.16H1118.56V1348.16V1352.16H2226.44V1348.16ZM1118.56 1348.16L1118.56 1344.16C1028.54 1344.16 955.563 1417.14 955.562 1507.16L959.562 1507.16L963.562 1507.16C963.563 1421.56 1032.96 1352.16 1118.56 1352.16L1118.56 1348.16ZM959.562 1507.16H955.562V2479H959.562H963.562V1507.16H959.562ZM959.562 2479V2475H875V2479V2483H959.562V2479ZM875 2479H879V1500H875H871V2479H875ZM875 1500H879C879 1366.35 987.347 1258 1121 1258V1254V1250C982.929 1250 871 1361.93 871 1500H875ZM1121 1254V1258H2224V1254V1250H1121V1254Z" fill="#5A9AD9" mask="url(#path-27-inside-2_118_3)"/>
<rect x="2959" y="2315" width="83" height="289" fill="white" stroke="#5A9AD9" stroke-width="4"/>
<rect x="2704" y="2074" width="593" height="289" fill="white" stroke="#5A9AD9" stroke-width="4"/>
<mask id="path-31-inside-3_118_3" fill="white">
<path d="M2971.5 2545C3012.22 2545 3045.5 2575.38 3047.87 2613.69C3055.64 2610.04 3064.34 2608 3073.53 2608C3106.41 2608 3133.06 2634.14 3133.06 2666.38C3133.06 2698.21 3107.1 2724.08 3074.81 2724.75V2725.01H2872.92V2724.85C2843.32 2722.71 2820 2698.75 2820 2669.5C2820 2638.85 2845.62 2614 2877.23 2614C2883.44 2614 2889.42 2614.96 2895.01 2616.73C2895.75 2576.99 2929.71 2545 2971.5 2545Z"/>
</mask>
<path d="M2971.5 2545C3012.22 2545 3045.5 2575.38 3047.87 2613.69C3055.64 2610.04 3064.34 2608 3073.53 2608C3106.41 2608 3133.06 2634.14 3133.06 2666.38C3133.06 2698.21 3107.1 2724.08 3074.81 2724.75V2725.01H2872.92V2724.85C2843.32 2722.71 2820 2698.75 2820 2669.5C2820 2638.85 2845.62 2614 2877.23 2614C2883.44 2614 2889.42 2614.96 2895.01 2616.73C2895.75 2576.99 2929.71 2545 2971.5 2545Z" fill="white"/>
<path d="M2971.5 2545V2541H2971.5L2971.5 2545ZM3047.87 2613.69L3043.87 2613.94L3044.24 2619.81L3049.56 2617.31L3047.87 2613.69ZM3073.53 2608V2604V2604V2608ZM3133.06 2666.38L3137.06 2666.38V2666.38H3133.06ZM3074.81 2724.75L3074.73 2720.75L3070.81 2720.83V2724.75H3074.81ZM3074.81 2725.01V2729.01H3078.81V2725.01H3074.81ZM2872.92 2725.01H2868.92V2729.01H2872.92V2725.01ZM2872.92 2724.85H2876.92V2721.13L2873.21 2720.86L2872.92 2724.85ZM2820 2669.5H2816V2669.5L2820 2669.5ZM2877.23 2614L2877.23 2610H2877.23V2614ZM2895.01 2616.73L2893.8 2620.54L2898.91 2622.16L2899.01 2616.8L2895.01 2616.73ZM2971.5 2545V2549C3010.25 2549 3041.65 2577.87 3043.87 2613.94L3047.87 2613.69L3051.86 2613.44C3049.36 2572.88 3014.18 2541 2971.5 2541V2545ZM3047.87 2613.69L3049.56 2617.31C3056.81 2613.91 3064.94 2612 3073.53 2612V2608V2604C3063.74 2604 3054.46 2606.18 3046.17 2610.07L3047.87 2613.69ZM3073.53 2608V2612C3104.28 2612 3129.06 2636.42 3129.06 2666.38H3133.06H3137.06C3137.06 2631.86 3108.55 2604 3073.53 2604V2608ZM3133.06 2666.38L3129.06 2666.38C3129.06 2695.95 3104.92 2720.13 3074.73 2720.75L3074.81 2724.75L3074.89 2728.75C3109.28 2728.04 3137.06 2700.46 3137.06 2666.38L3133.06 2666.38ZM3074.81 2724.75H3070.81V2725.01H3074.81H3078.81V2724.75H3074.81ZM3074.81 2725.01V2721.01H2872.92V2725.01V2729.01H3074.81V2725.01ZM2872.92 2725.01H2876.92V2724.85H2872.92H2868.92V2725.01H2872.92ZM2872.92 2724.85L2873.21 2720.86C2845.58 2718.87 2824 2696.54 2824 2669.5L2820 2669.5L2816 2669.5C2816 2700.97 2841.06 2726.56 2872.63 2728.84L2872.92 2724.85ZM2820 2669.5H2824C2824 2641.17 2847.72 2618 2877.23 2618V2614V2610C2843.53 2610 2816 2636.52 2816 2669.5H2820ZM2877.23 2614L2877.23 2618C2883.03 2618 2888.59 2618.89 2893.8 2620.54L2895.01 2616.73L2896.22 2612.92C2890.24 2611.02 2883.85 2610 2877.23 2610L2877.23 2614ZM2895.01 2616.73L2899.01 2616.8C2899.71 2579.41 2931.73 2549 2971.5 2549L2971.5 2545L2971.5 2541C2927.7 2541 2891.79 2574.58 2891.01 2616.65L2895.01 2616.73Z" fill="#5A9AD9" mask="url(#path-31-inside-3_118_3)"/>
<path d="M2772.38 2260L2804.03 2177.89H2814.03L2845.68 2260H2833.31L2822.96 2232.03L2829.86 2236.91H2787.73L2794.63 2232.03L2784.28 2260H2772.38ZM2794.87 2231.44L2791.54 2226.68H2826.05L2822.72 2231.44L2807.01 2189.31H2810.58L2794.87 2231.44ZM2859.99 2260V2177.89H2888.55C2893.39 2177.89 2897.76 2178.72 2901.64 2180.39C2905.61 2182.05 2908.74 2184.55 2911.04 2187.89C2913.42 2191.14 2914.61 2195.15 2914.61 2199.91C2914.61 2203.87 2913.58 2207.32 2911.52 2210.26C2909.54 2213.11 2906.88 2215.34 2903.55 2216.92C2907.83 2218.59 2911.28 2221.09 2913.9 2224.42C2916.6 2227.75 2917.95 2231.88 2917.95 2236.79C2917.95 2241.79 2916.72 2246.04 2914.26 2249.53C2911.8 2252.94 2908.51 2255.56 2904.38 2257.38C2900.26 2259.13 2895.69 2260 2890.7 2260H2859.99ZM2871.42 2250H2890.1C2894.62 2250 2898.43 2248.81 2901.52 2246.43C2904.62 2243.97 2906.17 2240.56 2906.17 2236.2C2906.17 2231.84 2904.62 2228.5 2901.52 2226.2C2898.51 2223.82 2894.7 2222.63 2890.1 2222.63H2871.42V2250ZM2871.42 2212.88H2887.96C2892.16 2212.88 2895.69 2211.8 2898.55 2209.66C2901.41 2207.52 2902.83 2204.47 2902.83 2200.5C2902.83 2196.53 2901.41 2193.44 2898.55 2191.22C2895.77 2189 2892.24 2187.89 2887.96 2187.89H2871.42V2212.88ZM2937.04 2260V2177.89H2990.12V2188.12H2948.47V2213.23H2984.17V2223.47H2948.47V2249.77H2990.71V2260H2937.04ZM3010.95 2260V2177.89H3038.68C3044.07 2177.89 3048.95 2178.88 3053.32 2180.86C3057.68 2182.85 3061.17 2185.74 3063.79 2189.55C3066.41 2193.28 3067.71 2197.92 3067.71 2203.47C3067.71 2209.98 3065.93 2215.26 3062.36 2219.3C3058.87 2223.35 3054.35 2226.16 3048.79 2227.75L3069.86 2260H3056.29L3037.13 2229.06H3022.38V2260H3010.95ZM3022.38 2219.18H3038.08C3043.16 2219.18 3047.41 2217.83 3050.82 2215.14C3054.23 2212.36 3055.93 2208.47 3055.93 2203.47C3055.93 2198.56 3054.23 2194.79 3050.82 2192.17C3047.48 2189.47 3043.24 2188.12 3038.08 2188.12H3022.38V2219.18ZM3080.02 2188.12V2177.89H3141.42V2188.12H3116.43V2260H3105.01V2188.12H3080.02ZM3150.99 2218.94C3150.99 2212.04 3151.9 2205.97 3153.73 2200.74C3155.63 2195.42 3158.25 2190.98 3161.58 2187.41C3164.91 2183.84 3168.76 2181.18 3173.12 2179.44C3177.49 2177.61 3182.13 2176.7 3187.05 2176.7C3191.97 2176.7 3196.61 2177.61 3200.97 2179.44C3205.33 2181.18 3209.18 2183.84 3212.51 2187.41C3215.85 2190.98 3218.42 2195.42 3220.25 2200.74C3222.15 2205.97 3223.1 2212.04 3223.1 2218.94C3223.1 2225.85 3222.15 2231.96 3220.25 2237.27C3218.42 2242.51 3215.85 2246.91 3212.51 2250.48C3209.18 2254.05 3205.33 2256.75 3200.97 2258.57C3196.61 2260.32 3191.97 2261.19 3187.05 2261.19C3182.13 2261.19 3177.49 2260.32 3173.12 2258.57C3168.76 2256.75 3164.91 2254.05 3161.58 2250.48C3158.25 2246.91 3155.63 2242.51 3153.73 2237.27C3151.9 2231.96 3150.99 2225.85 3150.99 2218.94ZM3162.77 2218.94C3162.77 2224.18 3163.37 2228.78 3164.56 2232.75C3165.83 2236.72 3167.53 2240.05 3169.67 2242.74C3171.89 2245.36 3174.47 2247.35 3177.41 2248.69C3180.34 2249.96 3183.56 2250.6 3187.05 2250.6C3190.54 2250.6 3193.75 2249.96 3196.69 2248.69C3199.62 2247.35 3202.16 2245.36 3204.3 2242.74C3206.52 2240.05 3208.23 2236.72 3209.42 2232.75C3210.69 2228.78 3211.32 2224.18 3211.32 2218.94C3211.32 2213.71 3210.69 2209.11 3209.42 2205.14C3208.23 2201.17 3206.52 2197.88 3204.3 2195.26C3202.16 2192.57 3199.62 2190.58 3196.69 2189.31C3193.75 2187.97 3190.54 2187.29 3187.05 2187.29C3183.56 2187.29 3180.34 2187.97 3177.41 2189.31C3174.47 2190.58 3171.89 2192.57 3169.67 2195.26C3167.53 2197.88 3165.83 2201.17 3164.56 2205.14C3163.37 2209.11 3162.77 2213.71 3162.77 2218.94Z" fill="#5A9AD9"/>
<path d="M2209 1859C2239.93 1859 2265 1884.07 2265 1915V1947.7C2265 1953.89 2259.89 1958.86 2253.7 1958.69L2112.5 1954.85L2116.69 1941H2105C2100.58 1941 2097 1937.42 2097 1933V1901C2097 1896.58 2100.58 1893 2105 1893H2128C2129.07 1893 2130.1 1893.21 2131.03 1893.59L2141.5 1859H2209Z" fill="white"/>
<path d="M2102 1933V1901C2102 1896.58 2105.58 1893 2110 1893H2133C2134.07 1893 2135.1 1893.21 2136.03 1893.59L2146.5 1859H2214C2244.93 1859 2270 1884.07 2270 1915V1947.7C2270 1953.89 2264.89 1958.86 2258.7 1958.69L2117.5 1954.85L2121.69 1941H2110V1937H2127.08L2122.84 1950.99L2258.81 1954.69C2262.63 1954.8 2265.8 1951.83 2265.99 1948.06L2266 1947.7V1915C2266 1886.28 2242.72 1863 2214 1863H2149.47L2138.59 1898.96L2134.51 1897.3C2134.05 1897.11 2133.54 1897 2133 1897H2110C2107.79 1897 2106 1898.79 2106 1901V1933C2106 1935.21 2107.79 1937 2110 1937V1941C2105.58 1941 2102 1937.42 2102 1933Z" fill="#5A9AD9"/>
<path d="M1131 1859C1100.07 1859 1075 1884.07 1075 1915V1947.7C1075 1953.89 1080.11 1958.86 1086.3 1958.69L1227.5 1954.85L1223.31 1941H1235C1239.42 1941 1243 1937.42 1243 1933V1901C1243 1896.58 1239.42 1893 1235 1893H1212C1210.93 1893 1209.9 1893.21 1208.97 1893.59L1198.5 1859H1131Z" fill="white"/>
<path d="M1243 1933V1901C1243 1896.58 1239.42 1893 1235 1893H1212C1210.93 1893 1209.9 1893.21 1208.97 1893.59L1198.5 1859H1131C1100.07 1859 1075 1884.07 1075 1915V1947.7C1075 1953.89 1080.11 1958.86 1086.3 1958.69L1227.5 1954.85L1223.31 1941H1235V1937H1217.92L1222.16 1950.99L1086.19 1954.69C1082.37 1954.8 1079.2 1951.83 1079.01 1948.06L1079 1947.7V1915C1079 1886.28 1102.28 1863 1131 1863H1195.53L1206.41 1898.96L1210.49 1897.3C1210.95 1897.11 1211.46 1897 1212 1897H1235C1237.21 1897 1239 1898.79 1239 1901V1933C1239 1935.21 1237.21 1937 1235 1937V1941C1239.42 1941 1243 1937.42 1243 1933Z" fill="#5A9AD9"/>
<path d="M1168 2388C1168 2369.77 1182.77 2355 1201 2355H1265C1283.23 2355 1298 2369.77 1298 2388V2522C1298 2540.22 1283.23 2555 1265 2555H1201C1182.77 2555 1168 2540.22 1168 2522V2388Z" fill="#DBEEFF"/>
<path d="M1265 2551V2555H1201V2551H1265ZM1294 2522V2388C1294 2371.98 1281.02 2359 1265 2359H1201C1184.98 2359 1172 2371.98 1172 2388V2522C1172 2538.02 1184.98 2551 1201 2551V2555C1183.06 2555 1168.46 2540.68 1168.01 2522.85L1168 2522V2388C1168 2369.77 1182.77 2355 1201 2355H1265L1265.85 2355.01C1283.68 2355.46 1298 2370.06 1298 2388V2522L1297.99 2522.85C1297.54 2540.4 1283.4 2554.54 1265.85 2554.99L1265 2555V2551C1281.02 2551 1294 2538.02 1294 2522Z" fill="#5A9AD9"/>
<path d="M2045 2390C2045 2371.77 2059.77 2357 2078 2357H2142C2160.23 2357 2175 2371.77 2175 2390V2524C2175 2542.22 2160.23 2557 2142 2557H2078C2059.77 2557 2045 2542.22 2045 2524V2390Z" fill="#DBEEFF"/>
<path d="M2142 2553V2557H2078V2553H2142ZM2171 2524V2390C2171 2373.98 2158.02 2361 2142 2361H2078C2061.98 2361 2049 2373.98 2049 2390V2524C2049 2540.02 2061.98 2553 2078 2553V2557C2060.06 2557 2045.46 2542.68 2045.01 2524.85L2045 2524V2390C2045 2371.77 2059.77 2357 2078 2357H2142L2142.85 2357.01C2160.68 2357.46 2175 2372.06 2175 2390V2524L2174.99 2524.85C2174.54 2542.4 2160.4 2556.54 2142.85 2556.99L2142 2557V2553C2158.02 2553 2171 2540.02 2171 2524Z" fill="#5A9AD9"/>
<path d="M1672.87 1642C1763 1642.04 1885.56 1649.59 1961.1 1654.93C1993.24 1657.21 2019.18 1679.74 2027.24 1709.49L2116.33 1940.27C2119.94 1949.62 2126.08 1957.79 2134.07 1963.84L2208.49 2020.29C2221.95 2030.5 2229.85 2046.42 2229.85 2063.32V2348C2229.85 2377.82 2205.67 2402 2175.85 2402H1168C1138.12 2402 1113.92 2377.73 1114 2347.85L1114.78 2062.46C1114.83 2046.05 1122.33 2030.55 1135.17 2020.34L1206.6 1963.52C1213.97 1957.66 1219.68 1949.97 1223.16 1941.22L1315.67 1708.74C1323.97 1679.36 1349.76 1657.19 1381.62 1654.95C1457.75 1649.57 1581.74 1641.96 1672.87 1642Z" fill="white"/>
<path d="M2227.85 2063.32C2227.85 2047.05 2220.24 2031.72 2207.28 2021.89L2132.86 1965.44C2124.58 1959.15 2118.21 1950.69 2114.46 1940.99L2025.38 1710.21L2025.34 1710.12L2025.31 1710.01C2017.46 1681.06 1992.22 1659.14 1960.96 1656.93C1885.42 1651.58 1762.93 1644.04 1672.87 1644C1581.82 1643.96 1457.89 1651.57 1381.76 1656.94C1350.77 1659.13 1325.68 1680.69 1317.6 1709.28L1317.57 1709.38L1317.53 1709.47L1225.02 1941.96C1221.41 1951.04 1215.49 1959.01 1207.85 1965.09L1136.41 2021.91C1124.05 2031.74 1116.82 2046.66 1116.78 2062.46L1116 2347.86C1115.92 2376.63 1139.23 2400 1168 2400H2175.85C2204.57 2400 2227.85 2376.72 2227.85 2348V2063.32ZM2231.85 2348C2231.85 2378.93 2206.78 2404 2175.85 2404H1168C1137.01 2404 1111.91 2378.83 1112 2347.85L1112.78 2062.45C1112.83 2045.44 1120.61 2029.37 1133.92 2018.78L1205.36 1961.96C1212.46 1956.31 1217.95 1948.91 1221.31 1940.48L1313.78 1708.08C1322.33 1677.98 1348.79 1655.26 1381.48 1652.95C1457.61 1647.58 1581.67 1639.96 1672.87 1640C1763.08 1640.04 1885.7 1647.59 1961.24 1652.94C1994.21 1655.27 2020.83 1678.37 2029.14 1708.86L2118.19 1939.55C2121.67 1948.56 2127.59 1956.42 2135.28 1962.25L2209.7 2018.7C2223.65 2029.29 2231.85 2045.8 2231.85 2063.32V2348Z" fill="#5A9AD9"/>
<path d="M2072.84 1858.99C2080.64 1858.98 2087.66 1863.74 2090.54 1870.99L2123.3 1953.71C2124.54 1956.85 2126.59 1959.59 2129.25 1961.67L2212.12 2026.61C2213.71 2027.86 2215.1 2029.36 2216.22 2031.04L2224.32 2043.22C2226.39 2046.34 2227.5 2050 2227.5 2053.74V2359.62C2227.5 2362.5 2226.84 2365.35 2225.58 2367.94L2220.04 2379.32C2218.4 2382.7 2215.79 2385.51 2212.55 2387.41L2192.02 2399.4C2189.11 2401.1 2185.8 2402 2182.43 2402H1961.49L1808 1859.46L2072.84 1858.99Z" fill="#DFF3FA" fill-opacity="0.13"/>
<path d="M1168 2092.27C1168 2086.5 1173.36 2082.22 1178.99 2083.5L1281.43 2106.76C1313.55 2114.05 1339.32 2137.97 1349 2169.46L1351.42 2177.36C1353.2 2183.14 1348.87 2189 1342.82 2189H1177C1172.03 2189 1168 2184.97 1168 2180V2092.27Z" fill="#EAF4FD"/>
<path d="M1168 2180V2092.27C1168 2086.5 1173.36 2082.22 1178.99 2083.5L1281.43 2106.76C1313.55 2114.05 1339.32 2137.97 1349 2169.46L1351.42 2177.36C1353.17 2183.05 1349.01 2188.82 1343.1 2189L1342.82 2189V2185C1346.18 2185 1348.59 2181.75 1347.6 2178.53L1345.17 2170.63C1335.92 2140.51 1311.27 2117.64 1280.54 2110.66L1178.11 2087.4C1174.98 2086.69 1172 2089.06 1172 2092.27V2180C1172 2182.76 1174.24 2185 1177 2185V2189L1176.54 2188.99C1171.93 2188.75 1168.24 2185.06 1168.01 2180.46L1168 2180ZM1342.82 2185V2189H1177V2185H1342.82Z" fill="#5A9AD9"/>
<path d="M2175 2092.27C2175 2086.5 2169.64 2082.22 2164.01 2083.5L2061.57 2106.76C2029.45 2114.05 2003.68 2137.97 1994 2169.46L1991.58 2177.36C1989.8 2183.14 1994.13 2189 2000.18 2189H2166C2170.97 2189 2175 2184.97 2175 2180V2092.27Z" fill="#EAF4FD"/>
<path d="M2175 2180V2092.27C2175 2086.5 2169.64 2082.22 2164.01 2083.5L2061.57 2106.76C2029.45 2114.05 2003.68 2137.97 1994 2169.46L1991.58 2177.36C1989.83 2183.05 1993.99 2188.82 1999.9 2189L2000.18 2189V2185C1996.82 2185 1994.41 2181.75 1995.4 2178.53L1997.83 2170.63C2007.08 2140.51 2031.73 2117.64 2062.46 2110.66L2164.89 2087.4C2168.02 2086.69 2171 2089.06 2171 2092.27V2180C2171 2182.76 2168.76 2185 2166 2185V2189L2166.46 2188.99C2171.07 2188.75 2174.76 2185.06 2174.99 2180.46L2175 2180ZM2000.18 2185V2189H2166V2185H2000.18Z" fill="#5A9AD9"/>
<path d="M1390.41 2081.76C1391.2 2082.54 1391.2 2083.8 1390.41 2084.58C1389.63 2085.37 1388.37 2085.37 1387.59 2084.58L1263.41 1960.41C1262.63 1959.63 1262.63 1958.37 1263.41 1957.58C1264.2 1956.8 1265.46 1956.8 1266.24 1957.58L1390.41 2081.76Z" fill="#5A9AD9"/>
<path d="M2080.41 1963.24C2081.2 1962.46 2081.2 1961.19 2080.41 1960.41C2079.63 1959.63 2078.37 1959.63 2077.59 1960.41L1953.41 2084.58C1952.63 2085.37 1952.63 2086.63 1953.41 2087.41C1954.2 2088.19 1955.46 2088.19 1956.24 2087.41L2080.41 1963.24Z" fill="#5A9AD9"/>
<path d="M1237 2263.5C1274.66 2263.5 1305.23 2293.9 1305.5 2331.5H1210C1187.08 2331.5 1168.5 2312.92 1168.5 2290V2263.5H1237Z" fill="#E4F2FF" stroke="#5A9AD9"/>
<path d="M2106 2263.5C2068.34 2263.5 2037.77 2293.9 2037.5 2331.5H2133C2155.92 2331.5 2174.5 2312.92 2174.5 2290V2263.5H2106Z" fill="#E4F2FF" stroke="#5A9AD9"/>
<path d="M1329 2402H2013L1923.34 2323H1413.11L1329 2402Z" fill="#EAF4FD"/>
<path d="M1923.34 2323H1413.12L1329 2402H2013L1923.34 2323ZM1414.7 2327H1921.83L2002.41 2398H1339.1L1414.7 2327Z" fill="#5A9AD9"/>
<path d="M1371.95 1707H1971.07C1978.49 1707 1985.05 1711.81 1987.29 1718.88L2049.79 1916.88C2053.25 1927.84 2045.07 1939 2033.58 1939H1309.87C1298.39 1939 1290.22 1927.86 1293.65 1916.91L1355.73 1718.91C1357.96 1711.82 1364.52 1707 1371.95 1707Z" fill="white" stroke="#5A9AD9" stroke-width="4"/>
<path d="M1971.07 1705C1979.36 1705 1986.7 1710.37 1989.19 1718.28L2051.7 1916.28C2055.5 1928.33 2046.7 1940.61 2034.18 1940.99L2033.58 1941V1937C2043.72 1937 2050.93 1927.15 2047.88 1917.48L1985.38 1719.48C1983.41 1713.24 1977.62 1709 1971.07 1709H1371.95C1365.4 1709 1359.6 1713.26 1357.64 1719.51L1295.56 1917.51C1292.53 1927.17 1299.74 1937 1309.87 1937V1941L1309.27 1940.99C1296.96 1940.62 1288.24 1928.75 1291.57 1916.89L1291.74 1916.31L1353.83 1718.31C1356.31 1710.39 1363.65 1705 1371.95 1705H1971.07ZM2033.58 1937V1941H1309.87V1937H2033.58Z" fill="#5A9AD9"/>
<path d="M1968.62 1708.52C1976.89 1708.51 1984.21 1713.84 1986.74 1721.71L2048.04 1912.69C2051.97 1924.96 2042.83 1937.5 2029.95 1937.5H1890.76L1823.11 1708.75L1968.62 1708.52Z" fill="#DFF3FA" fill-opacity="0.47"/>
<path d="M1434.94 2111.09C1430.99 2104.43 1435.79 2096 1443.54 2096H1901.42C1908.95 2096 1913.78 2104 1910.27 2110.66L1856.49 2212.66C1854.76 2215.94 1851.36 2218 1847.65 2218H1503.92C1500.39 2218 1497.12 2216.13 1495.32 2213.09L1434.94 2111.09Z" fill="#EAF4FD"/>
<path d="M1901.42 2096C1908.95 2096 1913.78 2104 1910.27 2110.66L1856.49 2212.66L1856.33 2212.97C1854.61 2215.97 1851.45 2217.87 1847.99 2217.99L1847.65 2218V2214C1849.87 2214 1851.92 2212.77 1852.95 2210.8L1906.73 2108.8C1908.84 2104.8 1905.94 2100 1901.42 2100H1443.54C1438.89 2100 1436.01 2105.06 1438.38 2109.06L1498.76 2211.06C1499.84 2212.88 1501.8 2214 1503.92 2214V2218C1500.5 2218 1497.32 2216.25 1495.49 2213.38L1495.32 2213.09L1434.94 2111.09C1430.99 2104.43 1435.79 2096 1443.54 2096H1901.42ZM1847.65 2214V2218H1503.92V2214H1847.65Z" fill="#5A9AD9"/>
<path d="M1536 2284H1808V2357H1536V2284Z" fill="white"/>
<path d="M1808 2284V2357H1536V2284H1808ZM1540 2353H1804V2288H1540V2353Z" fill="#5A9AD9"/>
<path d="M1745.65 2321.47C1745.65 2318.86 1745.99 2316.57 1746.68 2314.59C1747.4 2312.58 1748.39 2310.9 1749.65 2309.55C1750.91 2308.2 1752.37 2307.19 1754.02 2306.53C1755.67 2305.84 1757.42 2305.5 1759.28 2305.5C1761.14 2305.5 1762.9 2305.84 1764.55 2306.53C1766.2 2307.19 1767.65 2308.2 1768.91 2309.55C1770.17 2310.9 1771.15 2312.58 1771.84 2314.59C1772.56 2316.57 1772.92 2318.86 1772.92 2321.47C1772.92 2324.08 1772.56 2326.39 1771.84 2328.4C1771.15 2330.38 1770.17 2332.05 1768.91 2333.4C1767.65 2334.75 1766.2 2335.77 1764.55 2336.46C1762.9 2337.12 1761.14 2337.45 1759.28 2337.45C1757.42 2337.45 1755.67 2337.12 1754.02 2336.46C1752.37 2335.77 1750.91 2334.75 1749.65 2333.4C1748.39 2332.05 1747.4 2330.38 1746.68 2328.4C1745.99 2326.39 1745.65 2324.08 1745.65 2321.47ZM1750.1 2321.47C1750.1 2323.45 1750.33 2325.19 1750.78 2326.69C1751.26 2328.19 1751.9 2329.45 1752.71 2330.47C1753.55 2331.46 1754.53 2332.21 1755.64 2332.72C1756.75 2333.2 1757.96 2333.44 1759.28 2333.44C1760.6 2333.44 1761.82 2333.2 1762.93 2332.72C1764.04 2332.21 1765 2331.46 1765.81 2330.47C1766.65 2329.45 1767.29 2328.19 1767.74 2326.69C1768.22 2325.19 1768.46 2323.45 1768.46 2321.47C1768.46 2319.49 1768.22 2317.75 1767.74 2316.25C1767.29 2314.75 1766.65 2313.51 1765.81 2312.52C1765 2311.5 1764.04 2310.75 1762.93 2310.27C1761.82 2309.76 1760.6 2309.5 1759.28 2309.5C1757.96 2309.5 1756.75 2309.76 1755.64 2310.27C1754.53 2310.75 1753.55 2311.5 1752.71 2312.52C1751.9 2313.51 1751.26 2314.75 1750.78 2316.25C1750.33 2317.75 1750.1 2319.49 1750.1 2321.47Z" fill="#5A9AD9"/>
<path d="M1718.29 2321.47C1718.29 2317.81 1718.83 2314.81 1719.91 2312.47C1720.99 2310.1 1722.41 2308.35 1724.18 2307.21C1725.98 2306.07 1727.96 2305.5 1730.12 2305.5C1732.28 2305.5 1734.26 2306.07 1736.06 2307.21C1737.86 2308.35 1739.29 2310.1 1740.34 2312.47C1741.42 2314.81 1741.96 2317.81 1741.96 2321.47C1741.96 2325.1 1741.42 2328.1 1740.34 2330.47C1739.29 2332.84 1737.86 2334.6 1736.06 2335.74C1734.26 2336.88 1732.28 2337.45 1730.12 2337.45C1727.96 2337.45 1725.98 2336.88 1724.18 2335.74C1722.41 2334.6 1720.99 2332.84 1719.91 2330.47C1718.83 2328.1 1718.29 2325.1 1718.29 2321.47ZM1722.74 2321.47C1722.74 2324.26 1723.06 2326.54 1723.69 2328.31C1724.35 2330.08 1725.23 2331.39 1726.34 2332.23C1727.45 2333.04 1728.71 2333.44 1730.12 2333.44C1731.53 2333.44 1732.79 2333.04 1733.9 2332.23C1735.01 2331.39 1735.88 2330.08 1736.51 2328.31C1737.17 2326.54 1737.5 2324.26 1737.5 2321.47C1737.5 2318.65 1737.17 2316.37 1736.51 2314.63C1735.88 2312.86 1735.01 2311.57 1733.9 2310.76C1732.79 2309.92 1731.53 2309.5 1730.12 2309.5C1728.71 2309.5 1727.45 2309.92 1726.34 2310.76C1725.23 2311.57 1724.35 2312.86 1723.69 2314.63C1723.06 2316.37 1722.74 2318.65 1722.74 2321.47Z" fill="#5A9AD9"/>
<path d="M1687.33 2321.47C1687.33 2318.86 1687.68 2316.57 1688.37 2314.59C1689.09 2312.58 1690.08 2310.9 1691.34 2309.55C1692.6 2308.2 1694.05 2307.19 1695.7 2306.53C1697.35 2305.84 1699.11 2305.5 1700.97 2305.5C1702.83 2305.5 1704.58 2305.84 1706.23 2306.53C1707.88 2307.19 1709.34 2308.2 1710.6 2309.55C1711.86 2310.9 1712.83 2312.58 1713.52 2314.59C1714.24 2316.57 1714.6 2318.86 1714.6 2321.47C1714.6 2324.08 1714.24 2326.39 1713.52 2328.4C1712.83 2330.38 1711.86 2332.05 1710.6 2333.4C1709.34 2334.75 1707.88 2335.77 1706.23 2336.46C1704.58 2337.12 1702.83 2337.45 1700.97 2337.45C1699.11 2337.45 1697.35 2337.12 1695.7 2336.46C1694.05 2335.77 1692.6 2334.75 1691.34 2333.4C1690.08 2332.05 1689.09 2330.38 1688.37 2328.4C1687.68 2326.39 1687.33 2324.08 1687.33 2321.47ZM1691.79 2321.47C1691.79 2323.45 1692.01 2325.19 1692.46 2326.69C1692.94 2328.19 1693.59 2329.45 1694.4 2330.47C1695.24 2331.46 1696.21 2332.21 1697.32 2332.72C1698.43 2333.2 1699.65 2333.44 1700.97 2333.44C1702.29 2333.44 1703.5 2333.2 1704.61 2332.72C1705.72 2332.21 1706.68 2331.46 1707.49 2330.47C1708.33 2329.45 1708.98 2328.19 1709.43 2326.69C1709.91 2325.19 1710.15 2323.45 1710.15 2321.47C1710.15 2319.49 1709.91 2317.75 1709.43 2316.25C1708.98 2314.75 1708.33 2313.51 1707.49 2312.52C1706.68 2311.5 1705.72 2310.75 1704.61 2310.27C1703.5 2309.76 1702.29 2309.5 1700.97 2309.5C1699.65 2309.5 1698.43 2309.76 1697.32 2310.27C1696.21 2310.75 1695.24 2311.5 1694.4 2312.52C1693.59 2313.51 1692.94 2314.75 1692.46 2316.25C1692.01 2317.75 1691.79 2319.49 1691.79 2321.47Z" fill="#5A9AD9"/>
<path d="M1659.97 2321.47C1659.97 2317.81 1660.51 2314.81 1661.59 2312.47C1662.67 2310.1 1664.1 2308.35 1665.87 2307.21C1667.67 2306.07 1669.65 2305.5 1671.81 2305.5C1673.97 2305.5 1675.95 2306.07 1677.75 2307.21C1679.55 2308.35 1680.97 2310.1 1682.02 2312.47C1683.1 2314.81 1683.64 2317.81 1683.64 2321.47C1683.64 2325.1 1683.1 2328.1 1682.02 2330.47C1680.97 2332.84 1679.55 2334.6 1677.75 2335.74C1675.95 2336.88 1673.97 2337.45 1671.81 2337.45C1669.65 2337.45 1667.67 2336.88 1665.87 2335.74C1664.1 2334.6 1662.67 2332.84 1661.59 2330.47C1660.51 2328.1 1659.97 2325.1 1659.97 2321.47ZM1664.43 2321.47C1664.43 2324.26 1664.74 2326.54 1665.37 2328.31C1666.03 2330.08 1666.92 2331.39 1668.03 2332.23C1669.14 2333.04 1670.4 2333.44 1671.81 2333.44C1673.22 2333.44 1674.48 2333.04 1675.59 2332.23C1676.7 2331.39 1677.57 2330.08 1678.2 2328.31C1678.86 2326.54 1679.19 2324.26 1679.19 2321.47C1679.19 2318.65 1678.86 2316.37 1678.2 2314.63C1677.57 2312.86 1676.7 2311.57 1675.59 2310.76C1674.48 2309.92 1673.22 2309.5 1671.81 2309.5C1670.4 2309.5 1669.14 2309.92 1668.03 2310.76C1666.92 2311.57 1666.03 2312.86 1665.37 2314.63C1664.74 2316.37 1664.43 2318.65 1664.43 2321.47Z" fill="#5A9AD9"/>
<path d="M1629.02 2321.47C1629.02 2318.86 1629.36 2316.57 1630.05 2314.59C1630.77 2312.58 1631.76 2310.9 1633.02 2309.55C1634.28 2308.2 1635.74 2307.19 1637.39 2306.53C1639.04 2305.84 1640.79 2305.5 1642.65 2305.5C1644.51 2305.5 1646.27 2305.84 1647.92 2306.53C1649.57 2307.19 1651.02 2308.2 1652.28 2309.55C1653.54 2310.9 1654.52 2312.58 1655.21 2314.59C1655.93 2316.57 1656.29 2318.86 1656.29 2321.47C1656.29 2324.08 1655.93 2326.39 1655.21 2328.4C1654.52 2330.38 1653.54 2332.05 1652.28 2333.4C1651.02 2334.75 1649.57 2335.77 1647.92 2336.46C1646.27 2337.12 1644.51 2337.45 1642.65 2337.45C1640.79 2337.45 1639.04 2337.12 1637.39 2336.46C1635.74 2335.77 1634.28 2334.75 1633.02 2333.4C1631.76 2332.05 1630.77 2330.38 1630.05 2328.4C1629.36 2326.39 1629.02 2324.08 1629.02 2321.47ZM1633.47 2321.47C1633.47 2323.45 1633.7 2325.19 1634.15 2326.69C1634.63 2328.19 1635.27 2329.45 1636.08 2330.47C1636.92 2331.46 1637.9 2332.21 1639.01 2332.72C1640.12 2333.2 1641.33 2333.44 1642.65 2333.44C1643.97 2333.44 1645.19 2333.2 1646.3 2332.72C1647.41 2332.21 1648.37 2331.46 1649.18 2330.47C1650.02 2329.45 1650.66 2328.19 1651.11 2326.69C1651.59 2325.19 1651.83 2323.45 1651.83 2321.47C1651.83 2319.49 1651.59 2317.75 1651.11 2316.25C1650.66 2314.75 1650.02 2313.51 1649.18 2312.52C1648.37 2311.5 1647.41 2310.75 1646.3 2310.27C1645.19 2309.76 1643.97 2309.5 1642.65 2309.5C1641.33 2309.5 1640.12 2309.76 1639.01 2310.27C1637.9 2310.75 1636.92 2311.5 1636.08 2312.52C1635.27 2313.51 1634.63 2314.75 1634.15 2316.25C1633.7 2317.75 1633.47 2319.49 1633.47 2321.47Z" fill="#5A9AD9"/>
<path d="M1601.66 2321.47C1601.66 2317.81 1602.2 2314.81 1603.28 2312.47C1604.36 2310.1 1605.78 2308.35 1607.55 2307.21C1609.35 2306.07 1611.33 2305.5 1613.49 2305.5C1615.65 2305.5 1617.63 2306.07 1619.43 2307.21C1621.23 2308.35 1622.66 2310.1 1623.71 2312.47C1624.79 2314.81 1625.33 2317.81 1625.33 2321.47C1625.33 2325.1 1624.79 2328.1 1623.71 2330.47C1622.66 2332.84 1621.23 2334.6 1619.43 2335.74C1617.63 2336.88 1615.65 2337.45 1613.49 2337.45C1611.33 2337.45 1609.35 2336.88 1607.55 2335.74C1605.78 2334.6 1604.36 2332.84 1603.28 2330.47C1602.2 2328.1 1601.66 2325.1 1601.66 2321.47ZM1606.11 2321.47C1606.11 2324.26 1606.43 2326.54 1607.06 2328.31C1607.72 2330.08 1608.6 2331.39 1609.71 2332.23C1610.82 2333.04 1612.08 2333.44 1613.49 2333.44C1614.9 2333.44 1616.16 2333.04 1617.27 2332.23C1618.38 2331.39 1619.25 2330.08 1619.88 2328.31C1620.54 2326.54 1620.87 2324.26 1620.87 2321.47C1620.87 2318.65 1620.54 2316.37 1619.88 2314.63C1619.25 2312.86 1618.38 2311.57 1617.27 2310.76C1616.16 2309.92 1614.9 2309.5 1613.49 2309.5C1612.08 2309.5 1610.82 2309.92 1609.71 2310.76C1608.6 2311.57 1607.72 2312.86 1607.06 2314.63C1606.43 2316.37 1606.11 2318.65 1606.11 2321.47Z" fill="#5A9AD9"/>
<path d="M1570.7 2321.47C1570.7 2318.86 1571.04 2316.57 1571.73 2314.59C1572.45 2312.58 1573.44 2310.9 1574.7 2309.55C1575.96 2308.2 1577.42 2307.19 1579.07 2306.53C1580.72 2305.84 1582.47 2305.5 1584.33 2305.5C1586.19 2305.5 1587.95 2305.84 1589.6 2306.53C1591.25 2307.19 1592.7 2308.2 1593.96 2309.55C1595.22 2310.9 1596.2 2312.58 1596.89 2314.59C1597.61 2316.57 1597.97 2318.86 1597.97 2321.47C1597.97 2324.08 1597.61 2326.39 1596.89 2328.4C1596.2 2330.38 1595.22 2332.05 1593.96 2333.4C1592.7 2334.75 1591.25 2335.77 1589.6 2336.46C1587.95 2337.12 1586.19 2337.45 1584.33 2337.45C1582.47 2337.45 1580.72 2337.12 1579.07 2336.46C1577.42 2335.77 1575.96 2334.75 1574.7 2333.4C1573.44 2332.05 1572.45 2330.38 1571.73 2328.4C1571.04 2326.39 1570.7 2324.08 1570.7 2321.47ZM1575.15 2321.47C1575.15 2323.45 1575.38 2325.19 1575.83 2326.69C1576.31 2328.19 1576.95 2329.45 1577.76 2330.47C1578.6 2331.46 1579.58 2332.21 1580.69 2332.72C1581.8 2333.2 1583.01 2333.44 1584.33 2333.44C1585.65 2333.44 1586.87 2333.2 1587.98 2332.72C1589.09 2332.21 1590.05 2331.46 1590.86 2330.47C1591.7 2329.45 1592.34 2328.19 1592.79 2326.69C1593.27 2325.19 1593.51 2323.45 1593.51 2321.47C1593.51 2319.49 1593.27 2317.75 1592.79 2316.25C1592.34 2314.75 1591.7 2313.51 1590.86 2312.52C1590.05 2311.5 1589.09 2310.75 1587.98 2310.27C1586.87 2309.76 1585.65 2309.5 1584.33 2309.5C1583.01 2309.5 1581.8 2309.76 1580.69 2310.27C1579.58 2310.75 1578.6 2311.5 1577.76 2312.52C1576.95 2313.51 1576.31 2314.75 1575.83 2316.25C1575.38 2317.75 1575.15 2319.49 1575.15 2321.47Z" fill="#5A9AD9"/>
<path d="M1787.76 1777.9C1787.76 1798.83 1770.79 1815.8 1749.86 1815.8C1728.93 1815.8 1711.96 1798.83 1711.96 1777.9C1711.96 1756.97 1728.93 1740 1749.86 1740C1770.79 1740 1787.76 1756.97 1787.76 1777.9Z" fill="white"/>
<path d="M1781.45 1777.9C1781.45 1760.46 1767.31 1746.32 1749.86 1746.32C1732.42 1746.32 1718.28 1760.46 1718.28 1777.9C1718.28 1795.35 1732.42 1809.49 1749.86 1809.49V1815.8C1728.93 1815.8 1711.96 1798.83 1711.96 1777.9C1711.96 1756.97 1728.93 1740 1749.86 1740C1770.79 1740 1787.76 1756.97 1787.76 1777.9C1787.76 1798.83 1770.79 1815.8 1749.86 1815.8V1809.49C1767.31 1809.49 1781.45 1795.35 1781.45 1777.9Z" fill="#89B7E4"/>
<path d="M1915.68 1927.93C1915.68 1938.4 1907.2 1946.88 1896.73 1946.88C1886.27 1946.88 1877.78 1938.4 1877.78 1927.93C1877.78 1917.47 1886.27 1908.98 1896.73 1908.98C1907.2 1908.98 1915.68 1917.47 1915.68 1927.93Z" fill="white"/>
<path d="M1909.37 1927.93C1909.37 1920.95 1903.71 1915.3 1896.73 1915.3C1889.76 1915.3 1884.1 1920.95 1884.1 1927.93C1884.1 1934.91 1889.76 1940.57 1896.73 1940.57V1946.88C1886.27 1946.88 1877.78 1938.4 1877.78 1927.93C1877.78 1917.47 1886.27 1908.98 1896.73 1908.98C1907.2 1908.98 1915.68 1917.47 1915.68 1927.93C1915.68 1938.4 1907.2 1946.88 1896.73 1946.88V1940.57C1903.71 1940.57 1909.37 1934.91 1909.37 1927.93Z" fill="#89B7E4"/>
<path d="M1926.67 2012C1926.67 2008.32 1923.68 2005.33 1920 2005.33C1916.32 2005.33 1913.33 2008.32 1913.33 2012C1913.33 2015.68 1916.32 2018.67 1920 2018.67V2022C1914.48 2022 1910 2017.52 1910 2012C1910 2006.48 1914.48 2002 1920 2002C1925.52 2002 1930 2006.48 1930 2012C1930 2017.52 1925.52 2022 1920 2022V2018.67C1923.68 2018.67 1926.67 2015.68 1926.67 2012Z" fill="#89B7E4"/>
<path d="M1309.3 1862.43C1322.52 1822.38 1365.69 1800.64 1405.71 1813.88C1432.73 1822.81 1451.41 1845.42 1456.62 1871.48C1474.21 1862.4 1495.29 1860.13 1515.56 1866.83C1544.19 1876.3 1563.45 1901.09 1567.26 1929.1C1573.13 1929.15 1579.09 1930.09 1584.96 1932.03C1603.29 1938.09 1616.55 1952.45 1621.96 1969.56C1632.29 1962.55 1645.65 1960.24 1658.42 1964.46C1680.25 1971.68 1692.1 1995.24 1684.89 2017.09C1677.67 2038.94 1654.13 2050.79 1632.3 2043.57C1622.53 2040.34 1614.76 2033.84 1609.81 2025.68C1594.92 2042.22 1571.15 2049.34 1548.68 2041.91C1533.2 2036.79 1521.33 2025.75 1514.76 2012.13C1499.95 2016.86 1483.56 2017.12 1467.67 2011.87C1466.89 2011.61 1466.12 2011.34 1465.36 2011.06C1447.67 2026.62 1422.45 2032.66 1398.47 2024.73C1385.24 2020.36 1374.24 2012.34 1366.2 2002.16C1350.46 2016.65 1327.56 2022.41 1305.81 2015.21C1273.87 2004.65 1256.54 1970.18 1267.09 1938.22C1273.46 1918.93 1288.54 1904.96 1306.52 1899.25C1304.47 1887.32 1305.24 1874.73 1309.3 1862.43Z" fill="white"/>
<path d="M1309.3 1862.43C1322.52 1822.38 1365.69 1800.64 1405.71 1813.88C1432.73 1822.81 1451.41 1845.42 1456.62 1871.48C1474.21 1862.4 1495.29 1860.13 1515.56 1866.83C1544.19 1876.3 1563.45 1901.09 1567.26 1929.1C1573.13 1929.15 1579.09 1930.09 1584.96 1932.03C1603.29 1938.09 1616.55 1952.45 1621.96 1969.56C1632.29 1962.55 1645.65 1960.24 1658.42 1964.46C1680.25 1971.68 1692.1 1995.24 1684.89 2017.09C1677.67 2038.94 1654.13 2050.79 1632.3 2043.57C1622.53 2040.34 1614.76 2033.84 1609.81 2025.68C1594.92 2042.22 1571.15 2049.34 1548.68 2041.91C1533.2 2036.79 1521.33 2025.75 1514.76 2012.13C1499.95 2016.86 1483.56 2017.12 1467.67 2011.87C1466.89 2011.61 1466.12 2011.34 1465.36 2011.06C1447.67 2026.62 1422.45 2032.66 1398.47 2024.73C1385.24 2020.36 1374.24 2012.34 1366.2 2002.16C1350.46 2016.65 1327.56 2022.41 1305.81 2015.21C1273.87 2004.65 1256.54 1970.18 1267.09 1938.22C1273.46 1918.93 1288.54 1904.96 1306.52 1899.25C1304.47 1887.32 1305.24 1874.73 1309.3 1862.43ZM1403.58 1820.33C1367.12 1808.28 1327.8 1828.08 1315.75 1864.56C1312.05 1875.77 1311.35 1887.24 1313.21 1898.1L1314.21 1903.93L1308.58 1905.73C1292.59 1910.81 1279.2 1923.22 1273.54 1940.36C1264.17 1968.75 1279.57 1999.38 1307.94 2008.76C1327.25 2015.15 1347.6 2010.05 1361.6 1997.16L1366.99 1992.19L1371.53 1997.94C1378.77 2007.11 1388.67 2014.33 1400.6 2018.28C1422.19 2025.42 1444.92 2019.99 1460.87 2005.95L1463.9 2003.28L1467.69 2004.67C1468.42 2004.94 1469.11 2005.19 1469.8 2005.41C1484.28 2010.2 1499.2 2009.96 1512.7 2005.65L1518.31 2003.86L1520.88 2009.17C1526.69 2021.2 1537.15 2030.94 1550.81 2035.46C1570.63 2042.01 1591.61 2035.74 1604.76 2021.13L1610.87 2014.34L1615.61 2022.15C1619.76 2028.98 1626.25 2034.41 1634.43 2037.12C1652.7 2043.16 1672.4 2033.24 1678.44 2014.96C1684.47 1996.68 1674.56 1976.96 1656.29 1970.92C1645.61 1967.38 1634.44 1969.31 1625.77 1975.19L1618.23 1980.31L1615.48 1971.61C1610.7 1956.49 1599 1943.84 1582.83 1938.49C1577.64 1936.77 1572.38 1935.94 1567.2 1935.9L1561.32 1935.85L1560.53 1930.02C1557.05 1904.49 1539.5 1881.91 1513.43 1873.29C1494.96 1867.18 1475.77 1869.24 1459.73 1877.52L1451.72 1881.66L1449.96 1872.82C1445.21 1849.05 1428.18 1828.47 1403.58 1820.33Z" fill="#89B7E4"/>
<path d="M1969.14 2436C1981.03 2436 1992.11 2439.43 2001.41 2445.35C2009.45 2442.35 2018.14 2440.71 2027.22 2440.71C2055.07 2440.71 2079.31 2456.14 2091.87 2478.92C2094.33 2478.57 2096.86 2478.38 2099.42 2478.38C2113.11 2478.38 2125.56 2483.61 2134.82 2492.16C2142.05 2488.37 2150.31 2486.23 2159.07 2486.23C2187.68 2486.23 2210.87 2509.07 2210.87 2537.24C2210.87 2565.42 2187.68 2588.26 2159.07 2588.26C2145.38 2588.26 2132.93 2583.02 2123.67 2574.48C2116.44 2578.26 2108.18 2580.41 2099.42 2580.41C2089.48 2580.41 2080.2 2577.65 2072.31 2572.87C2059.84 2582.51 2044.2 2588.26 2027.22 2588.26C2005.14 2588.26 1985.33 2578.55 1971.81 2563.18C1961.02 2576.56 1944.5 2585.12 1925.98 2585.12C1913.76 2585.12 1902.42 2581.4 1893.01 2575.03C1883.61 2581.4 1872.27 2585.12 1860.05 2585.12C1847.07 2585.12 1835.06 2580.91 1825.33 2573.78C1814.71 2589.16 1796.96 2599.24 1776.86 2599.24C1744.35 2599.24 1718 2572.89 1718 2540.38C1718 2507.87 1744.35 2481.52 1776.86 2481.52C1789.85 2481.52 1801.85 2485.73 1811.58 2492.85C1822.2 2477.47 1839.95 2467.39 1860.05 2467.39C1872.27 2467.39 1883.61 2471.11 1893.01 2477.48C1899.78 2472.9 1907.55 2469.69 1915.93 2468.25C1925.77 2449.11 1945.91 2436 1969.14 2436Z" fill="white"/>
<path d="M1829.04 2568.72C1837.73 2575.08 1848.44 2578.84 1860.05 2578.84V2585.12C1847.07 2585.12 1835.06 2580.91 1825.33 2573.78C1814.71 2589.16 1796.96 2599.24 1776.86 2599.24V2592.96C1794.81 2592.96 1810.66 2583.97 1820.16 2570.22L1823.83 2564.9L1829.04 2568.72ZM1976.52 2559.04C1988.9 2573.11 2007.02 2581.98 2027.22 2581.98V2588.26C2005.14 2588.26 1985.33 2578.55 1971.81 2563.18C1961.02 2576.56 1944.5 2585.12 1925.98 2585.12V2578.84C1942.52 2578.84 1957.27 2571.2 1966.92 2559.24L1971.6 2553.44L1976.52 2559.04ZM2075.57 2567.5C2082.5 2571.7 2090.66 2574.13 2099.42 2574.13V2580.41C2089.48 2580.41 2080.2 2577.65 2072.31 2572.87C2059.84 2582.51 2044.2 2588.26 2027.22 2588.26V2581.98C2042.76 2581.98 2057.06 2576.73 2068.47 2567.9L2071.88 2565.26L2075.57 2567.5ZM2127.93 2569.86C2136.07 2577.37 2147.01 2581.98 2159.07 2581.98V2588.26C2145.38 2588.26 2132.93 2583.02 2123.67 2574.48C2116.44 2578.26 2108.18 2580.41 2099.42 2580.41V2574.13C2107.15 2574.13 2114.4 2572.24 2120.76 2568.91L2124.68 2566.87L2127.93 2569.86ZM2204.59 2537.24C2204.59 2512.63 2184.3 2492.51 2159.07 2492.51C2151.34 2492.51 2144.09 2494.4 2137.73 2497.72L2133.81 2499.77L2130.56 2496.77C2122.42 2489.26 2111.48 2484.66 2099.42 2484.66C2097.16 2484.66 2094.94 2484.82 2092.76 2485.14L2088.46 2485.75L2086.37 2481.95C2074.87 2461.1 2052.69 2446.99 2027.22 2446.99C2018.9 2446.99 2010.95 2448.49 2003.61 2451.23L2000.68 2452.33L1998.04 2450.65C1989.72 2445.36 1979.81 2442.28 1969.14 2442.28C1948.32 2442.28 1930.31 2454.02 1921.51 2471.12L1920.08 2473.91L1916.99 2474.44C1909.52 2475.72 1902.58 2478.59 1896.54 2482.68L1893.01 2485.06L1889.49 2482.68C1881.1 2476.99 1870.97 2473.67 1860.05 2473.67C1842.1 2473.67 1826.25 2482.66 1816.75 2496.42L1813.08 2501.73L1807.88 2497.92C1799.18 2491.55 1788.47 2487.8 1776.86 2487.8C1747.82 2487.8 1724.28 2511.34 1724.28 2540.38C1724.28 2569.42 1747.82 2592.96 1776.86 2592.96V2599.24C1744.35 2599.24 1718 2572.89 1718 2540.38C1718 2507.87 1744.35 2481.52 1776.86 2481.52C1789.85 2481.52 1801.85 2485.73 1811.58 2492.85C1822.2 2477.47 1839.95 2467.39 1860.05 2467.39C1872.27 2467.39 1883.61 2471.11 1893.01 2477.48C1899.78 2472.9 1907.55 2469.69 1915.93 2468.25C1925.77 2449.11 1945.91 2436 1969.14 2436C1981.03 2436 1992.11 2439.43 2001.41 2445.35C2009.45 2442.35 2018.14 2440.71 2027.22 2440.71C2055.07 2440.71 2079.31 2456.14 2091.87 2478.92C2094.33 2478.57 2096.86 2478.38 2099.42 2478.38C2113.11 2478.38 2125.56 2483.61 2134.82 2492.16C2142.05 2488.37 2150.31 2486.23 2159.07 2486.23C2187.68 2486.23 2210.87 2509.07 2210.87 2537.24C2210.87 2565.42 2187.68 2588.26 2159.07 2588.26V2581.98C2184.3 2581.98 2204.59 2561.86 2204.59 2537.24ZM1896.54 2569.83C1904.93 2575.51 1915.06 2578.84 1925.98 2578.84V2585.12C1913.76 2585.12 1902.42 2581.4 1893.01 2575.03C1883.61 2581.4 1872.27 2585.12 1860.05 2585.12V2578.84C1870.97 2578.84 1881.1 2575.51 1889.49 2569.83L1893.01 2567.44L1896.54 2569.83Z" fill="#89B7E4"/>
<path d="M2197.09 1972.95C2229.23 1979 2250.45 2009.61 2244.49 2041.33C2243.95 2044.18 2243.21 2046.94 2242.29 2049.61C2255.71 2062.83 2262.52 2082.14 2258.81 2101.87C2256.57 2113.76 2250.83 2124.12 2242.83 2132.11C2248.71 2139.68 2251.44 2149.55 2249.55 2159.59C2247.49 2170.55 2240.37 2179.31 2230.99 2184.01C2235.35 2191.08 2237.19 2199.66 2235.55 2208.38C2232.01 2227.23 2213.49 2239.58 2194.21 2235.95C2174.92 2232.32 2162.16 2214.09 2165.71 2195.24C2167.77 2184.27 2174.89 2175.51 2184.28 2170.81C2179.92 2163.74 2178.07 2155.16 2179.71 2146.45C2179.77 2146.16 2179.82 2145.87 2179.89 2145.59C2153.43 2135.74 2137.08 2108.29 2142.4 2079.97C2142.94 2077.12 2143.68 2074.35 2144.61 2071.69C2131.19 2058.46 2124.37 2039.16 2128.09 2019.42C2134.05 1987.71 2164.95 1966.9 2197.09 1972.95Z" fill="white"/>
<path d="M2229.35 2207.21C2230.68 2200.12 2229.19 2193.13 2225.61 2187.33L2221.99 2181.45L2228.16 2178.36C2235.89 2174.49 2241.67 2167.33 2243.35 2158.42C2244.88 2150.25 2242.67 2142.21 2237.84 2135.98L2234.42 2131.58L2238.36 2127.64C2245.49 2120.52 2250.6 2111.3 2252.6 2100.7C2255.9 2083.15 2249.86 2065.94 2237.85 2054.1L2235.01 2051.31L2236.32 2047.54C2237.14 2045.16 2237.8 2042.7 2238.28 2040.16C2243.59 2011.95 2224.72 1984.58 2195.92 1979.16C2167.13 1973.74 2139.6 1992.38 2134.29 2020.59C2130.99 2038.15 2137.04 2055.36 2149.04 2067.19L2151.88 2069.99L2150.57 2073.76C2149.75 2076.13 2149.09 2078.59 2148.61 2081.14C2143.87 2106.33 2158.41 2130.85 2182.09 2139.67L2187.21 2141.57L2186.06 2146.91C2186.01 2147.14 2185.97 2147.38 2185.92 2147.62C2184.59 2154.71 2186.08 2161.7 2189.66 2167.49L2193.28 2173.37L2187.11 2176.46C2179.38 2180.33 2173.6 2187.5 2171.92 2196.4C2169.04 2211.7 2179.39 2226.73 2195.38 2229.74L2194.21 2235.95C2174.92 2232.32 2162.16 2214.09 2165.71 2195.24C2167.77 2184.27 2174.89 2175.51 2184.28 2170.81C2179.92 2163.74 2178.07 2155.16 2179.71 2146.45C2179.77 2146.16 2179.82 2145.87 2179.89 2145.59C2153.43 2135.74 2137.08 2108.29 2142.4 2079.97C2142.94 2077.12 2143.68 2074.35 2144.61 2071.69C2131.19 2058.46 2124.37 2039.16 2128.09 2019.42C2134.05 1987.71 2164.95 1966.9 2197.09 1972.95C2229.23 1979 2250.45 2009.61 2244.49 2041.33C2243.95 2044.18 2243.21 2046.94 2242.29 2049.61C2255.71 2062.83 2262.52 2082.14 2258.81 2101.87C2256.57 2113.76 2250.83 2124.12 2242.83 2132.11C2248.71 2139.68 2251.44 2149.55 2249.55 2159.59C2247.49 2170.55 2240.37 2179.31 2230.99 2184.01C2235.35 2191.08 2237.19 2199.66 2235.55 2208.38C2232.01 2227.23 2213.49 2239.58 2194.21 2235.95L2195.38 2229.74C2211.37 2232.75 2226.47 2222.51 2229.35 2207.21Z" fill="#89B7E4"/>
<path d="M1880.84 1575C1917.5 1575 1947.95 1601.58 1953.98 1636.53C1957.86 1635.54 1961.93 1635.01 1966.12 1635.01C1981.38 1635.01 1995.01 1642 2003.99 1652.95C2010.39 1650.54 2017.31 1649.23 2024.55 1649.23C2056.82 1649.23 2082.98 1675.39 2082.98 1707.66C2082.98 1710.74 2082.74 1713.77 2082.28 1716.72C2098.38 1722.82 2109.83 1738.38 2109.83 1756.61C2109.83 1780.16 2090.74 1799.25 2067.19 1799.25C2046.89 1799.25 2029.91 1785.07 2025.61 1766.08C2025.25 1766.08 2024.9 1766.09 2024.55 1766.09C2001.2 1766.09 1981.06 1752.4 1971.7 1732.61C1969.87 1732.81 1968.01 1732.93 1966.12 1732.93C1948.4 1732.93 1932.88 1723.51 1924.28 1709.41C1912.07 1718.24 1897.06 1723.45 1880.84 1723.45C1853.85 1723.45 1830.23 1709.05 1817.24 1687.51C1812.19 1689.3 1806.75 1690.29 1801.09 1690.29C1785.52 1690.29 1771.68 1682.9 1762.87 1671.44C1754.71 1686.43 1738.81 1696.6 1720.54 1696.6C1706.67 1696.6 1694.17 1690.74 1685.38 1681.35C1679.03 1688.3 1669.9 1692.65 1659.74 1692.65C1640.55 1692.65 1625 1677.1 1625 1657.91C1625 1638.72 1640.55 1623.17 1659.74 1623.17C1666.03 1623.17 1671.94 1624.84 1677.03 1627.76C1684.76 1611.51 1701.34 1600.27 1720.54 1600.27C1736.11 1600.27 1749.95 1607.66 1758.76 1619.11C1766.92 1604.12 1782.82 1593.95 1801.09 1593.95C1809.8 1593.95 1817.97 1596.26 1825.02 1600.31C1838.62 1584.8 1858.59 1575 1880.84 1575Z" fill="white"/>
<path d="M2031.77 1764.68C2035.43 1780.86 2049.91 1792.94 2067.19 1792.94V1799.25C2046.89 1799.25 2029.91 1785.07 2025.61 1766.08C2025.25 1766.08 2024.9 1766.09 2024.55 1766.09V1759.77C2024.83 1759.77 2025.11 1759.77 2025.49 1759.76L2030.63 1759.67L2031.77 1764.68ZM1977.41 1729.91C1985.77 1747.57 2003.74 1759.77 2024.55 1759.77V1766.09C2001.2 1766.09 1981.06 1752.4 1971.7 1732.61C1969.87 1732.81 1968.01 1732.93 1966.12 1732.93V1726.61C1967.76 1726.61 1969.38 1726.51 1970.99 1726.33L1975.48 1725.82L1977.41 1729.91ZM1929.68 1706.12C1937.17 1718.42 1950.69 1726.61 1966.12 1726.61V1732.93C1948.4 1732.93 1932.88 1723.51 1924.28 1709.41C1912.07 1718.24 1897.06 1723.45 1880.84 1723.45V1717.13C1895.69 1717.13 1909.41 1712.37 1920.58 1704.29L1926.12 1700.28L1929.68 1706.12ZM1822.65 1684.24C1834.54 1703.97 1856.16 1717.13 1880.84 1717.13V1723.45C1853.85 1723.45 1830.23 1709.05 1817.24 1687.51C1812.19 1689.3 1806.75 1690.29 1801.09 1690.29V1683.97C1806.02 1683.97 1810.74 1683.11 1815.12 1681.56L1819.98 1679.82L1822.65 1684.24ZM1690 1677.03C1697.64 1685.2 1708.49 1690.29 1720.54 1690.29V1696.6C1706.67 1696.6 1694.17 1690.74 1685.38 1681.35C1679.03 1688.3 1669.9 1692.65 1659.74 1692.65V1686.34C1668.05 1686.34 1675.52 1682.78 1680.72 1677.09L1685.33 1672.05L1690 1677.03ZM1767.88 1667.59C1775.54 1677.56 1787.56 1683.97 1801.09 1683.97V1690.29C1785.52 1690.29 1771.68 1682.9 1762.87 1671.44C1754.71 1686.43 1738.81 1696.6 1720.54 1696.6V1690.29C1736.41 1690.29 1750.22 1681.46 1757.32 1668.42L1761.97 1659.89L1767.88 1667.59ZM1625 1657.91C1625 1638.72 1640.55 1623.17 1659.74 1623.17C1666.03 1623.17 1671.94 1624.84 1677.03 1627.76C1684.76 1611.51 1701.34 1600.27 1720.54 1600.27C1736.11 1600.27 1749.95 1607.66 1758.76 1619.11C1766.92 1604.12 1782.82 1593.95 1801.09 1593.95C1809.8 1593.95 1817.97 1596.26 1825.02 1600.31C1838.62 1584.8 1858.59 1575 1880.84 1575C1917.5 1575 1947.95 1601.58 1953.98 1636.53C1957.86 1635.54 1961.93 1635.01 1966.12 1635.01C1981.38 1635.01 1995.01 1642 2003.99 1652.95C2010.39 1650.54 2017.31 1649.23 2024.55 1649.23C2056.82 1649.23 2082.98 1675.39 2082.98 1707.66C2082.98 1710.74 2082.74 1713.77 2082.28 1716.72C2098.38 1722.82 2109.83 1738.38 2109.83 1756.61C2109.83 1780.16 2090.74 1799.25 2067.19 1799.25V1792.94C2087.25 1792.94 2103.51 1776.68 2103.51 1756.61C2103.51 1741.09 2093.77 1727.83 2080.04 1722.63L2075.25 1720.82L2076.04 1715.75C2076.45 1713.11 2076.67 1710.41 2076.67 1707.66C2076.67 1678.87 2053.33 1655.54 2024.55 1655.54C2018.09 1655.54 2011.91 1656.72 2006.21 1658.86L2001.98 1660.45L1999.11 1656.95C1991.28 1647.4 1979.41 1641.33 1966.12 1641.33C1962.46 1641.33 1958.92 1641.79 1955.54 1642.65L1948.91 1644.34L1947.75 1637.6C1942.24 1605.64 1914.38 1581.32 1880.84 1581.32C1860.48 1581.32 1842.22 1590.27 1829.77 1604.47L1826.36 1608.36L1821.87 1605.79C1815.76 1602.28 1808.66 1600.27 1801.09 1600.27C1785.22 1600.27 1771.41 1609.09 1764.31 1622.14L1759.66 1630.66L1753.75 1622.96C1746.09 1612.99 1734.07 1606.59 1720.54 1606.59C1703.87 1606.59 1689.46 1616.34 1682.73 1630.48L1679.8 1636.64L1673.88 1633.24C1669.72 1630.85 1664.9 1629.48 1659.74 1629.48C1644.04 1629.48 1631.32 1642.21 1631.32 1657.91C1631.32 1673.61 1644.04 1686.34 1659.74 1686.34V1692.65C1640.55 1692.65 1625 1677.1 1625 1657.91Z" fill="#89B7E4"/>
</svg>
